<svg width="125" height="122" viewBox="0 0 125 122" fill="none" xmlns="http://www.w3.org/2000/svg">
<path d="M19.8498 42.4641C21.7623 42.2763 23.6681 42.1364 25.5702 41.9351C27.4588 41.7441 29.3745 41.5324 31.3142 41.3241C31.5163 50.9312 31.7077 60.4395 31.9029 70.0091C30.0612 70.0362 28.2162 70.0871 26.2996 70.1282C26.1347 62.3764 25.977 54.662 25.8253 46.8146C23.8233 46.8561 21.8828 46.8939 19.9423 46.9317C19.9035 45.4414 19.875 43.9647 19.8498 42.4641Z" fill="white"/>
<path d="M106.567 77.9711C106.598 79.3386 105.349 80.372 104.034 80.021C99.5456 78.8447 94.9543 78.1534 90.3405 77.7145C84.488 77.1664 78.6238 76.9697 72.752 77.271C68.6943 77.4806 64.616 77.663 60.6042 78.1589C55.8118 78.7545 51.048 79.5853 46.3053 80.5285C40.3871 81.6998 34.6085 83.4502 28.9755 85.6466C27.934 86.0513 26.9201 86.5206 25.8992 86.9525C24.5958 87.4917 23.4681 87.1056 22.9299 85.9727C22.4329 84.8941 22.9179 83.7557 24.1665 83.1725C29.0658 80.9119 34.1698 79.2879 39.367 77.8716C46.0391 76.0856 52.7959 74.8347 59.6577 74.0608C67.7703 73.13 75.9167 72.7516 84.1047 73.1335C90.7438 73.4488 97.3337 74.1225 103.812 75.6939C104.26 75.804 104.697 75.9006 105.128 76.0449C106.026 76.3266 106.545 77.0673 106.567 77.9711Z" fill="white"/>
<path d="M55.8476 55.1843C55.7411 57.5554 55.8323 59.9049 55.4765 62.2296C54.7528 67.1451 50.8082 70.608 44.914 69.9203C40.2759 69.3929 37.1203 66.1356 36.7744 61.4749C36.4973 57.554 36.3974 53.5844 36.526 49.634C36.6969 44.6669 40.3004 41.2059 45.2984 40.7968C50.1704 40.4191 54.2111 43.3475 55.1515 48.1993C55.6175 50.4786 55.6336 52.8423 55.8476 55.1843ZM42.0334 55.0887C42.0708 55.0817 42.1186 55.0882 42.1561 55.0812C42.1673 55.8861 42.192 56.6807 42.2032 57.4856C42.2111 58.3143 42.168 59.1604 42.2851 59.992C42.455 61.1474 42.6114 62.313 42.996 63.4126C43.4082 64.5769 44.3128 65.3463 45.5894 65.5338C47.7637 65.8324 49.3473 64.7596 49.809 62.4616C50.0611 61.1573 50.0913 59.786 50.067 58.4559C50.0161 55.3694 49.955 52.2693 49.72 49.1941C49.5983 47.5098 48.8671 46.0096 47.0901 45.3882C44.869 44.6329 42.7171 45.944 42.3627 48.5245C42.0674 50.6749 42.1272 52.8984 42.0334 55.0887Z" fill="white"/>
<path d="M78.7044 54.7547C78.5979 57.1258 78.7064 59.5264 78.3131 61.8581C77.4882 66.9788 73.3745 70.0777 67.7432 69.426C63.1322 68.878 59.9457 65.58 59.6443 60.9498C59.3705 57.005 59.2912 53.0625 59.3959 49.1088C59.5575 43.678 64.2812 39.8596 69.6966 40.3111C74.5966 40.7041 77.778 44.3057 78.2382 48.6656C78.4606 50.6801 78.3522 52.7102 78.4008 54.7496C78.5203 54.766 78.6056 54.7655 78.7044 54.7547ZM64.9192 54.9796C64.9566 54.9725 65.0044 54.9791 65.0419 54.9721C65.0769 56.401 65.0881 57.8267 65.1334 59.2692C65.1821 60.6878 65.2887 62.1266 66.0631 63.4015C67.4295 65.6827 70.6974 65.7298 72.0459 63.444C72.4582 62.746 72.805 61.9051 72.8041 61.1138C72.7983 56.9015 72.755 52.6962 72.5515 48.5054C72.4341 46.347 70.9425 44.8885 69.202 44.7103C67.209 44.5096 65.5171 45.7501 65.2429 48.013C64.9382 50.3203 65.0191 52.6563 64.9192 54.9796Z" fill="white"/>
<path d="M84.2555 67.0677C86.0299 64.6944 87.6722 62.4855 89.3144 60.2767C93.6686 54.3626 98.0261 48.4247 102.36 42.4834C102.722 41.9733 103.099 41.7086 103.751 41.7494C104.682 41.7921 105.616 41.7256 106.738 41.7093C105.546 43.2984 104.446 44.7539 103.366 46.2367C98.4292 52.935 93.479 59.6435 88.5766 66.3587C88.2448 66.8244 87.8878 67.031 87.3181 67.0136C86.3699 67.0051 85.4253 67.058 84.2555 67.0677Z" fill="white"/>
<path d="M93.5058 48.0289C93.4209 48.7354 93.3942 49.462 93.2512 50.1484C92.6186 52.9828 90.6044 54.532 87.7015 54.4863C85.2967 54.4482 83.2303 52.6551 82.8304 49.9832C82.6351 48.5688 82.6267 47.034 82.9501 45.6543C83.5162 43.1272 85.8716 41.5761 88.4137 41.767C91.0719 41.9981 93.0024 43.8943 93.3447 46.6314C93.4051 47.0779 93.4145 47.5417 93.4613 47.9985C93.4819 48.0256 93.5058 48.0289 93.5058 48.0289ZM90.3138 48.1383C90.0876 47.3039 89.9434 46.4929 89.6596 45.7236C89.4104 45.0564 88.8454 44.6502 88.0541 44.6511C87.2389 44.6487 86.6373 45.0408 86.3477 45.7314C85.6439 47.3996 85.6531 49.105 86.5179 50.6965C87.2655 52.0773 89.066 51.9958 89.7164 50.5393C90.0261 49.7907 90.117 48.9512 90.3138 48.1383Z" fill="white"/>
<path d="M108.489 60.5273C108.198 61.6681 108.078 62.8932 107.603 63.9599C106.684 66.0489 104.898 66.9966 102.633 66.9168C100.463 66.8501 98.9565 65.7668 98.1068 63.8C97.295 61.9114 97.2057 59.9029 97.843 57.9212C98.5872 55.5159 100.697 54.0652 103.089 54.1989C105.58 54.3218 107.437 55.867 108.023 58.3333C108.197 59.0145 108.218 59.7477 108.318 60.4429C108.386 60.4767 108.42 60.4935 108.489 60.5273ZM105.18 60.5111C104.94 59.687 104.782 58.8863 104.485 58.1273C104.215 57.433 103.64 57.0985 102.863 57.089C102.082 57.1035 101.531 57.4782 101.231 58.1552C100.517 59.8099 100.577 61.4979 101.377 63.1171C101.712 63.7838 102.311 64.1216 103.071 64.08C103.794 64.0454 104.355 63.6842 104.58 63.0213C104.814 62.2015 104.966 61.3581 105.18 60.5111Z" fill="white"/>
</svg>
