<svg width="105" height="98" viewBox="0 0 105 98" fill="none" xmlns="http://www.w3.org/2000/svg">
<path d="M85.3149 20.2947L68.0691 20.5331L70.1372 24.2683L85.7118 24.0717L86.3425 63.8354L19.719 64.8864L19.0883 25.1227L36.5221 24.8526L36.4651 21.0725C30.7328 21.1569 24.9955 21.2577 19.2632 21.3421C16.8258 21.3817 15.3678 22.8263 15.3897 25.2047C15.6333 41.1503 15.8818 57.0797 16.1417 73.0302C16.179 75.5917 17.6535 76.9519 20.215 76.9146C24.5669 76.854 28.9238 76.7771 33.2757 76.7165C35.6967 76.6719 38.1177 76.6274 40.5501 76.6041C41.661 76.587 42.0704 76.9975 42.1414 78.107C42.1582 78.344 42.1536 78.5922 42.1654 78.8455C42.1892 80.2259 42.1842 80.2422 43.5483 80.2134C49.9814 80.1113 56.3933 80.0206 62.8315 79.9022C64.6056 79.8739 64.4316 80.0347 64.4209 78.3195C64.4125 76.4802 64.6704 76.2202 66.5523 76.1892C73.077 76.0794 79.613 75.9909 86.1376 75.8812C88.8984 75.8335 90.2926 74.4229 90.2349 71.6947C89.9841 55.8895 89.7496 40.0893 89.4774 24.2955C89.4474 21.5936 88.0218 20.2484 85.3149 20.2947ZM69.3288 81.2821C69.3427 82.0532 69.349 82.7327 69.3679 83.4875C58.6857 83.6637 48.0787 83.8274 37.4015 83.9873C37.3939 83.2539 37.3763 82.553 37.3623 81.782C47.9906 81.607 58.614 81.4484 69.3288 81.2821ZM72.9573 24.4349C71.5473 21.9887 69.7517 19.8706 67.5606 18.113C67.3006 17.8552 66.9817 17.615 66.6678 17.3585C66.3049 17.0871 65.9208 16.827 65.5317 16.5832C64.9668 16.2144 64.3869 15.8945 63.9162 15.6258C63.5044 15.3394 63.0514 15.1296 62.5935 14.9361L62.5771 14.9311C62.212 14.7839 61.8468 14.6366 61.4654 14.4843C57.0299 12.7183 52.4928 12.2764 47.8482 13.3531C37.7918 15.6823 30.5847 23.8579 29.5152 34.1237C29.5053 34.1563 29.5116 34.1939 29.5016 34.2265C29.5016 34.2265 29.4966 34.2427 29.498 34.2967C29.4436 34.708 29.1393 36.9868 29.4461 39.5415C29.4855 39.821 29.5199 40.1169 29.5806 40.3851L29.5756 40.4014C30.4375 45.5154 32.8178 49.863 36.621 53.5222C43.6473 60.2887 54.8819 61.922 63.4395 57.2622L63.3082 56.7583L63.1655 56.2333L62.5483 53.9938C62.006 54.3095 61.4361 54.5989 60.8498 54.8834C61.2971 54.0036 61.7081 53.1842 62.1091 52.3973L59.8965 44.4095C58.1809 44.1882 56.5142 43.9819 54.8149 43.7656L54.725 37.8176L62.2314 37.7048C62.0468 39.5921 61.8508 41.4582 61.6712 43.3292L64.711 44.2941C65.1108 42.1694 65.2836 40.0288 65.2545 37.7908L72.9226 37.674C72.855 38.4201 72.835 39.1273 72.7285 39.8259C72.3639 42.0684 71.613 44.1749 70.497 46.1341L73.6346 47.129C75.2274 43.9602 76.0483 40.3414 76.1136 36.2776C76.1585 32.0472 75.083 28.0984 72.9573 24.4349ZM50.8817 16.4383L51.0184 25.3251C49.0382 25.0943 47.1395 24.8884 45.2246 24.6775C45.842 21.5493 48.6323 17.0881 50.8817 16.4383ZM51.0282 34.1018C51.0323 34.2635 50.8021 34.5498 50.673 34.5639C48.3335 34.6334 45.9926 34.6489 43.4964 34.7061C43.6637 32.9919 43.8075 31.4131 43.9513 29.8342C44.0017 29.2611 44.101 28.7029 44.1464 28.1462C44.1809 27.8001 44.3349 27.7045 44.6597 27.7503C46.6136 28.0088 48.5725 28.251 50.5215 28.5258C50.6896 28.5593 50.9446 28.8334 50.9436 29.0114C51.0019 30.6877 51.0338 32.3916 51.0282 34.1018ZM44.6487 17.6358C43.6745 19.6562 42.7414 21.6001 41.7508 23.6156C40.5852 23.1701 39.3757 22.6933 38.0193 22.1717C40.1149 20.3335 42.2072 18.7975 44.6487 17.6358ZM32.959 32.4836C33.4132 29.9476 34.3744 27.62 35.6731 25.4134C35.9055 25.003 36.1035 24.9387 36.5615 25.1322C38.0397 25.7802 39.5541 26.368 41.1288 26.992C40.5464 29.364 40.3377 31.7968 40.2971 34.2631C40.3011 34.4249 40.0546 34.7062 39.9305 34.7039C37.5534 34.7797 35.1586 34.7966 32.6298 34.8439C32.7386 34.0212 32.8162 33.2424 32.959 32.4836ZM36.1592 47.7994C34.119 44.9645 32.9071 41.8121 32.5822 38.3245C32.5759 38.2869 32.6072 38.2431 32.652 38.0963L35.7526 38.0455C37.0415 38.0293 38.3467 38.0181 39.6293 37.9644C40.0819 37.9422 40.2264 38.1112 40.2698 38.5524C40.5586 40.8163 40.8686 43.0689 41.195 45.3264C41.252 45.6648 41.1809 45.8392 40.8501 45.9878C39.4796 46.621 38.1204 47.2755 36.7336 47.9037C36.6058 47.9716 36.2484 47.9158 36.1592 47.7994ZM38.6356 50.6072C39.9322 50.0406 41.1437 49.5193 42.3289 49.0256C43.3231 51.0236 44.2883 52.9415 45.2485 54.8756C42.7995 54.02 40.6591 52.5632 38.6356 50.6072ZM51.5075 56.2183C48.2517 54.3849 46.8069 51.411 45.5171 48.1635C47.4457 47.6296 49.3762 47.3815 51.3745 47.2613L51.5075 56.2183ZM51.4474 43.931C49.1849 44.2737 46.9437 44.605 44.6272 44.949C44.0965 42.7182 43.7865 40.4656 43.7596 38.1035L51.3575 37.983L51.4474 43.931ZM54.189 16.2366C57.4447 18.07 58.9059 21.0489 60.231 24.4142C58.2154 24.7076 56.3127 24.9819 54.3347 25.2688L54.189 16.2366ZM60.5861 47.8123C59.2832 51.1411 57.9898 54.2053 54.8138 56.1947L54.6731 47.1461C56.642 47.3557 58.552 47.5829 60.5861 47.8123ZM61.3502 34.4038C59.1987 34.4416 57.0522 34.4632 54.912 34.5223C54.4431 34.5394 54.2461 34.4256 54.2602 33.9128C54.2572 32.2891 54.2167 30.6718 54.1974 29.0431C54.1956 28.7572 54.1399 28.4728 54.5811 28.4293C56.7322 28.1596 58.8719 27.8685 61.216 27.5508C61.5034 29.7607 61.7972 32.0082 62.0923 34.3097C61.7212 34.3568 61.5332 34.3884 61.3502 34.4038ZM63.0672 23.07C62.6505 22.158 62.3191 21.2006 61.8811 20.2999C61.4381 19.4155 60.8773 18.5665 60.3755 17.6998C61.4098 17.6415 65.4003 20.1631 66.992 21.898C65.7855 22.403 64.6592 22.879 63.5266 23.3174C63.4201 23.374 63.1351 23.1977 63.0672 23.07ZM72.9366 34.3614L65.1983 34.4745C65.0734 33.3664 64.9761 32.2846 64.8249 31.2041C64.6294 29.8603 64.4338 28.5166 64.1631 27.1855C64.058 26.6541 64.2094 26.4507 64.6742 26.2718C66.0148 25.7365 67.3491 25.1636 68.6833 24.5906C68.9715 24.4647 69.1695 24.4004 69.4096 24.7234C71.3455 27.4908 72.4958 30.5531 72.9358 33.8975C72.9498 34.0266 72.9475 34.1507 72.9366 34.3614ZM64.9437 56.3667L63.4232 57.2572C63.5084 57.2119 63.5936 57.1666 63.6624 57.1163C64.1096 56.8785 64.5291 56.6144 64.9437 56.3667ZM72.7843 53.8773L78.1934 59.4005L75.8581 61.7896L70.5609 56.4254L67.4081 60.8471L62.2558 45.5587L77.3427 50.8661L72.7843 53.8773Z" fill="white"/>
</svg>
