<svg width="110" height="108" viewBox="0 0 110 108" fill="none" xmlns="http://www.w3.org/2000/svg">
<path d="M38.8627 71.1136C39.6578 74.2906 41.4579 76.5981 44.4614 77.8017C45.6258 78.2742 46.9645 78.5143 48.2353 78.5182C60.9064 78.5473 73.5585 78.4934 86.2256 78.4745C86.468 78.4787 86.6973 78.4718 86.9397 78.4759C87.889 78.5426 88.6015 79.2581 88.603 80.1534C88.6194 81.0837 87.8708 81.8353 86.8924 81.8557C85.0317 81.8886 83.1671 81.8734 81.3155 81.8692C81.0861 81.876 80.8438 81.8719 80.5053 81.8757C81.6517 83.7411 82.003 85.648 81.3468 87.6625C80.9052 89.0542 80.0533 90.1652 78.8761 91.0007C76.5197 92.6475 73.3542 92.5583 71.1021 90.7844C68.4877 88.7257 68.0299 85.9685 69.6548 81.9138C64.8159 81.9267 59.9879 81.9266 55.0529 81.9474C56.1804 83.7297 56.4906 85.5795 55.9265 87.538C55.515 88.9998 54.6671 90.1589 53.4327 91.0354C50.9641 92.7883 47.6334 92.6039 45.3374 90.5916C42.7923 88.3457 42.5368 85.4023 44.5291 81.5471C43.548 81.0958 42.5378 80.7317 41.6208 80.1783C37.3404 77.5798 35.289 73.696 35.2641 68.7128C35.2244 58.8668 35.1866 49.0447 35.219 39.1926C35.2359 34.7143 33.7843 30.9139 30.5847 27.7784C29.3737 26.5959 28.2179 25.3484 27.04 24.1269C26.2324 23.2862 26.197 22.2727 26.9365 21.5581C27.6539 20.8696 28.6864 20.9174 29.4439 21.738C31.3944 23.8152 33.3889 25.8404 35.2031 28.0257C36.6 29.701 37.4329 31.7254 37.9483 33.8608C38.0921 34.4297 38.3484 34.6021 38.8942 34.6175C40.6146 34.6446 42.339 34.7198 44.0414 34.8211C44.504 34.8554 44.6343 34.6752 44.7337 34.2677C46.7028 26.0342 53.9648 20.497 62.4087 20.7668C70.6212 21.0194 77.7372 27.4732 78.8906 35.7147C78.9694 36.2285 79.1385 36.3718 79.6362 36.3911C81.8804 36.4597 84.1045 36.5783 86.3376 36.6598C87.8548 36.7159 88.5382 37.5185 88.2378 39.0074C87.3426 43.5463 86.4364 48.0982 85.5412 52.6371C85.074 55.0353 84.5828 57.4354 84.1026 59.8225C83.2838 63.8227 80.5875 66.1873 76.5354 66.6434C71.0321 67.2557 65.5589 67.9382 60.0726 68.6096C54.6805 69.2491 49.2884 69.8885 43.8852 70.541C42.2398 70.6891 40.5873 70.8984 38.8627 71.1136ZM38.7007 67.6906C39.0482 67.6497 39.3496 67.6369 39.6491 67.6001C41.8414 67.3341 44.0337 67.0681 46.239 66.8132C51.2115 66.2205 56.195 65.6148 61.1675 65.0222C66.188 64.4256 71.2176 63.7919 76.2402 63.2193C78.806 62.9345 80.3501 61.5606 80.8424 59.0273C81.7427 54.4032 82.669 49.8013 83.5822 45.1882C83.9238 43.466 84.2654 41.7438 84.601 39.9494C83.6167 39.8977 82.6934 39.8531 81.7961 39.8304C80.8878 39.8208 79.9815 39.8353 79.0732 39.8257C78.194 49.0944 69.8326 56.114 60.5357 55.4792C51.372 54.8454 44.2278 47.0266 44.2846 38.2011C42.427 38.1248 40.5564 38.0374 38.6507 37.9651C38.6633 47.9223 38.679 57.7704 38.7007 67.6906ZM57.2168 35.3893C57.2246 37.3852 57.2142 39.4551 57.254 41.5451C57.2549 41.7024 57.5541 41.9559 57.7374 41.9771C58.5074 42.0707 59.2885 42.1513 60.0616 42.1358C62.1015 42.076 64.1245 41.9572 66.1495 41.8623C66.4034 39.3729 66.4089 37.0977 66.1449 34.9294C63.1215 35.0947 60.2292 35.237 57.2168 35.3893ZM65.5632 31.5532C65.5054 31.1466 65.4875 30.9303 65.4236 30.742C64.9879 29.2776 64.6003 27.8092 64.1055 26.3619C63.2908 23.9729 63.1647 23.9108 60.667 24.1415C60.643 24.1435 60.6059 24.1344 60.5949 24.1474C60.3554 24.3245 59.9898 24.4395 59.9005 24.6767C59.4352 25.78 58.9958 26.9054 58.6416 28.0357C58.2583 29.2532 57.9881 30.5219 57.6026 32.0057C60.3726 31.8493 62.9264 31.7108 65.5632 31.5532ZM69.614 40.8861C69.7252 40.9132 69.7642 40.9463 69.7993 40.9313C71.6674 40.2566 73.5355 39.5818 75.4016 38.883C75.5308 38.836 75.6611 38.6558 75.6752 38.5337C75.7407 36.3987 75.3534 34.3495 74.4524 32.3791C72.7576 32.9548 71.1349 33.5246 69.6044 34.0384C69.6029 36.3617 69.6085 38.6239 69.614 40.8861ZM65.6685 45.4111C62.9826 45.4153 60.467 45.4298 57.7682 45.423C58.2959 47.1218 58.7435 48.7304 59.2722 50.2959C59.8839 52.133 59.919 52.118 61.8778 52.1012C63.5091 52.0752 63.5592 52.0953 64.096 50.5384C64.6709 48.8573 65.1436 47.1122 65.6685 45.4111ZM48.4665 33.6082C47.7723 35.4564 47.6169 37.381 47.7668 39.3409C47.7768 39.4611 47.9479 39.6284 48.0721 39.6666C49.9383 40.2867 51.8156 40.8937 53.767 41.5189C53.7665 39.1715 53.7559 36.9944 53.7602 34.8523C51.984 34.4426 50.2448 34.0419 48.4665 33.6082ZM75.0861 88.773C76.8176 88.7872 78.2525 87.4101 78.2777 85.6657C78.3048 83.9452 76.9037 82.5123 75.1703 82.4741C73.4498 82.447 72.0169 83.848 71.9787 85.5815C71.9536 87.326 73.3547 88.7589 75.0861 88.773ZM52.8083 85.6783C52.7964 83.9248 51.3993 82.5399 49.6698 82.5498C47.9403 82.5597 46.5444 83.9699 46.5563 85.7234C46.5662 87.4529 47.9653 88.8618 49.6948 88.8519C51.4243 88.842 52.8072 87.4208 52.8083 85.6783ZM74.8311 42.9594C73.0122 43.497 71.2394 44.0066 69.4815 44.5513C69.3042 44.6022 69.1598 44.9046 69.0926 45.1158C68.9209 45.8197 68.8233 46.5417 68.6275 47.2476C68.3344 48.385 68.0042 49.5134 67.6599 50.764C71.148 49.0478 73.4639 46.4726 74.8311 42.9594ZM48.8476 43.6317C50.3146 46.8863 52.5643 49.2171 55.7549 50.7804C55.3523 49.277 54.8504 47.8907 54.6481 46.4675C54.4766 45.2717 53.9892 44.7917 52.8136 44.6227C51.4919 44.4416 50.2203 43.9901 48.8476 43.6317ZM54.2071 31.4758C54.7742 29.4082 55.2882 27.4297 55.8463 25.3992C53.4131 26.5563 51.4803 28.2044 49.9656 30.5197C51.4455 30.8572 52.8383 31.1655 54.2071 31.4758ZM72.6006 29.4467C71.5612 27.8508 68.7445 25.6879 67.5079 25.5118C67.9875 27.2146 68.4911 28.9153 68.9877 30.6772C70.1877 30.2633 71.3766 29.8625 72.6006 29.4467Z" fill="white"/>
</svg>
