<svg width="107" height="114" viewBox="0 0 107 114" fill="none" xmlns="http://www.w3.org/2000/svg">
<path d="M36.6434 96.9455L29.389 97.2746L34.939 74.0634L42.209 73.7274L36.6434 96.9455Z" fill="white"/>
<path d="M77.313 95.1355L70.0361 95.4559L60.5959 72.9101L67.8728 72.5897L68.3183 73.642L77.313 95.1355Z" fill="white"/>
<path d="M79.8381 20.7698L81.3927 55.4416C79.6628 54.2661 77.5556 53.6299 75.306 53.7273C75.2143 53.7305 75.1225 53.7338 75.0532 53.7457L73.8646 27.2997L24.8987 29.4924L26.5349 65.955L65.737 64.1915C65.8446 66.5484 66.7562 68.6999 68.2112 70.3508L20.577 72.478L18.3844 23.5121L79.8381 20.7698Z" fill="white"/>
<path d="M68.4416 44.6446C68.0217 44.3265 67.6331 43.9947 67.2532 43.6404L68.003 43.6079L68.4416 44.6446Z" fill="#A4A4A4"/>
<path d="M74.8875 55.5721C70.5027 55.7725 67.1086 59.4874 67.3091 63.8722C67.5095 68.2571 71.2244 71.6511 75.6161 71.4663C80.001 71.2658 83.3951 67.5509 83.2102 63.1592C82.9873 58.7656 79.2724 55.3716 74.8875 55.5721ZM80.0974 64.2152L76.187 64.3928L76.3646 68.3032L74.5358 68.3828L74.3582 64.4724L70.1881 64.6527L70.1085 62.8239L74.2786 62.6437L74.0983 58.4736L75.927 58.3939L76.1074 62.564L80.0177 62.3865L80.0974 64.2152Z" fill="white"/>
</svg>
