<svg width="86" height="86" viewBox="0 0 86 86" fill="none" xmlns="http://www.w3.org/2000/svg">
<path d="M66.7202 70.6345L66.3784 70.9281C60.0815 76.4491 52.3187 79.4784 43.9335 79.7103L43.88 79.7035C24.1094 80.204 7.60325 64.3271 7.07647 44.3357C6.94761 39.1982 7.84179 34.2236 9.74872 29.5355L9.91017 29.1212L10.244 29.4029C11.3289 30.3184 12.5516 30.9633 13.9119 31.3376L14.2596 31.4253L13.9837 32.1404C12.5335 35.9733 11.8588 40.0354 11.9531 44.2062C12.4124 61.4817 26.6425 75.1662 43.6437 74.7263C50.768 74.535 57.3657 72.0315 62.7741 67.4684L63.0422 67.2416L63.2389 67.533C64.0389 68.6786 65.1036 69.6677 66.3027 70.3694L66.7202 70.6345Z" fill="white"/>
<path d="M78.8142 42.4487C78.9158 46.3052 78.4323 50.1034 77.3638 53.7566L77.2424 54.1978L76.8752 53.9227C75.7198 53.0907 74.4603 52.5226 73.0863 52.2553L72.7419 52.1843L72.8297 51.8366C73.6491 48.8585 74.0139 45.779 73.9373 42.6651C73.7188 34.2598 70.295 26.4359 64.2879 20.6698C61.3044 17.8002 57.8611 15.595 54.0718 14.1015C50.2691 12.628 46.2539 11.9266 42.1399 12.0445C36.1729 12.1982 30.4395 14.0615 25.559 17.4251L25.2541 17.6418L25.0843 17.3104C24.4416 16.0815 23.5243 14.959 22.4359 14.1137L22.0854 13.8353L22.4506 13.5719C28.1855 9.51793 34.9566 7.27566 42.0474 7.091C61.7845 6.59709 78.2841 22.4406 78.8142 42.4487Z" fill="white"/>
<path d="M44.6131 35.1049C44.8473 43.9416 45.0783 52.7616 45.3125 61.5984C44.0682 61.6357 42.8407 61.6697 41.5932 61.6903C41.3623 52.8703 41.128 44.0335 40.8938 35.1968C42.1213 35.1628 43.3488 35.1288 44.6131 35.1049Z" fill="white"/>
<path d="M32.3031 47.8626C31.0589 47.9 29.8481 47.9307 28.6039 47.968C28.3848 39.8236 28.169 31.6959 27.9466 23.5348C29.1742 23.5008 30.4017 23.4668 31.6459 23.4294C31.8784 31.5538 32.0942 39.6815 32.3031 47.8626Z" fill="white"/>
<path d="M53.1838 22.8218C54.4281 22.7845 55.6388 22.7538 56.9031 22.7299C57.0444 28.2821 57.2024 33.831 57.3471 39.4C56.1195 39.434 54.892 39.468 53.6278 39.4919C53.473 33.9597 53.3317 28.4075 53.1838 22.8218Z" fill="white"/>
<path d="M57.4876 44.6034C57.6322 50.1723 57.7869 55.7045 57.9282 61.2568C56.684 61.2941 55.4397 61.3314 54.1922 61.352C54.0509 55.7998 53.8928 50.2509 53.7515 44.6986C54.9958 44.6613 56.2233 44.6273 57.4876 44.6034Z" fill="white"/>
<path d="M42.6131 30.212C43.5997 30.1909 44.5831 30.153 45.5698 30.1318C46.3658 30.1135 46.8598 30.5895 46.8948 31.3823C46.9099 32.0746 46.9418 32.7637 46.957 33.456C46.9686 34.2186 46.516 34.7426 45.7734 34.7677C43.7532 34.8367 41.7463 34.8857 39.7228 34.938C38.9769 34.9464 38.4797 34.4536 38.4513 33.6943C38.4194 33.0053 38.4043 32.3129 38.3891 31.6206C38.3708 30.8246 38.8435 30.3139 39.6363 30.2789C40.623 30.2577 41.6264 30.2332 42.6131 30.212Z" fill="white"/>
<path d="M55.4837 39.7172C56.4537 39.6993 57.4203 39.6647 58.3902 39.6468C59.2565 39.6321 59.7337 40.1114 59.7652 40.9744C59.7905 41.6299 59.799 42.2888 59.8243 42.9444C59.8358 43.794 59.3597 44.2879 58.5302 44.3128C56.5769 44.3686 54.6236 44.4243 52.6669 44.4634C51.8374 44.4883 51.3435 44.0123 51.312 43.1493C51.3002 42.4737 51.2683 41.7846 51.2564 41.109C51.2415 40.3297 51.7142 39.8191 52.4935 39.8041C53.4936 39.7629 54.5003 39.7551 55.4837 39.7172Z" fill="white"/>
<path d="M30.467 48.1712C31.4536 48.15 32.437 48.1121 33.4237 48.0909C34.2197 48.0726 34.7137 48.5486 34.7487 49.3414C34.7638 50.0337 34.7957 50.7228 34.8109 51.4151C34.8225 52.1777 34.3698 52.7018 33.6273 52.7268C31.6071 52.7959 29.6002 52.8448 27.5734 52.8804C26.7941 52.8954 26.3303 52.396 26.2953 51.6033C26.2667 50.931 26.2515 50.2386 26.2397 49.563C26.2214 48.7669 26.6941 48.2563 27.4869 48.2213C28.4769 48.2168 29.4803 48.1924 30.467 48.1712Z" fill="white"/>
<path d="M28.7439 53.1548C29.9881 53.1175 31.2156 53.0835 32.4632 53.0629C32.5468 56.0363 32.6237 58.9763 32.704 61.9331C31.4765 61.9671 30.249 62.0011 28.9847 62.025C28.891 59.0883 28.8107 56.1316 28.7439 53.1548Z" fill="white"/>
<path d="M44.2859 23.0858C44.3544 25.3669 44.3994 27.6179 44.4678 29.899C43.2236 29.9363 41.9961 29.9704 40.7485 29.991C40.6834 27.7266 40.635 25.4589 40.5666 23.1778C41.7941 23.1437 43.0216 23.1097 44.2859 23.0858Z" fill="white"/>
<path d="M16.9541 13.1368C12.4588 13.2604 8.9151 17.0551 9.02861 21.5872C9.1085 24.7179 10.9252 27.4009 13.5008 28.7345C14.6634 29.3391 15.9938 29.6498 17.3785 29.6195C18.8301 29.576 20.1889 29.151 21.3678 28.4312C23.7859 26.945 25.3874 24.2295 25.3007 21.1524C25.1872 16.6203 21.4327 13.0165 16.9541 13.1368ZM21.2943 25.421C20.2853 26.4722 18.8891 27.148 17.3305 27.1779C15.8421 27.2114 14.4854 26.6799 13.4373 25.7745C12.259 24.7384 11.4899 23.2215 11.4335 21.5291C11.3571 18.3282 13.8514 15.6448 17.0156 15.5583C20.1797 15.4718 22.8195 18.0096 22.9159 21.2239C22.959 22.8494 22.3336 24.3464 21.2943 25.421Z" fill="white"/>
<path d="M17.3316 21.579C18.6497 21.544 19.6897 20.4395 19.6544 19.112C19.6192 17.7844 18.5221 16.7366 17.204 16.7716C15.8859 16.8066 14.8459 17.9111 14.8812 19.2386C14.9164 20.5662 16.0135 21.614 17.3316 21.579Z" fill="white"/>
<path d="M21.2727 24.798L21.2947 25.4369C20.2856 26.4881 18.8895 27.1639 17.3308 27.1938C15.8425 27.2273 14.4858 26.6958 13.4376 25.7904L13.4227 25.0111C13.3766 23.1949 14.7981 21.6797 16.5942 21.6202L17.9422 21.5798C19.7249 21.5403 21.2233 22.9651 21.2727 24.798Z" fill="white"/>
<path d="M71.3399 52.6627C66.8445 52.7863 63.3008 56.581 63.4144 61.1131C63.4942 64.2437 65.3109 66.9268 67.8865 68.2604C69.0491 68.865 70.3795 69.1757 71.7642 69.1454C73.2158 69.1019 74.5747 68.6768 75.7536 67.9571C78.1717 66.4709 79.7731 63.7554 79.6864 60.6782C79.5729 56.1462 75.8185 52.5423 71.3399 52.6627ZM75.6801 64.9468C74.671 65.9981 73.2748 66.6739 71.7162 66.7038C70.2278 66.7372 68.8711 66.2057 67.823 65.3004C66.6447 64.2642 65.8755 62.7474 65.8192 61.055C65.7428 57.8541 68.2372 55.1707 71.4013 55.0842C74.5654 54.9977 77.2052 57.5355 77.3016 60.7498C77.3448 62.3753 76.716 63.8555 75.6801 64.9468Z" fill="white"/>
<path d="M71.7257 61.1034C73.0438 61.0684 74.0837 59.9639 74.0485 58.6364C74.0132 57.3088 72.9162 56.261 71.598 56.296C70.2799 56.331 69.24 57.4355 69.2752 58.7631C69.3105 60.0906 70.4075 61.1384 71.7257 61.1034Z" fill="white"/>
<path d="M75.6575 64.3078L75.6795 64.9466C74.6704 65.9979 73.2742 66.6737 71.7156 66.7036C70.2272 66.737 68.8705 66.2055 67.8224 65.3002L67.8074 64.5208C67.7613 62.7047 69.1829 61.1895 70.979 61.13L72.3269 61.0895C74.1097 61.0501 75.6114 62.4916 75.6575 64.3078Z" fill="white"/>
</svg>
