<svg width="107" height="106" viewBox="0 0 107 106" fill="none" xmlns="http://www.w3.org/2000/svg">
<path d="M92.6351 49.4443C91.0759 35.664 81.381 24.3878 68.5775 20.4224C67.4358 14.274 61.9577 9.6766 55.4995 9.83167C48.5235 10.0173 42.9603 15.6737 42.8595 22.602C32.2374 27.9967 24.8157 38.7302 24.0336 51.1461C19.1548 53.1195 15.7644 57.958 15.9048 63.492C16.087 70.6288 22.0501 76.3069 29.1869 76.1248C30.2399 76.093 31.2611 75.9412 32.2359 75.6781C38.7457 83.2737 48.4934 88.0074 59.2631 87.7256C70.0181 87.4525 79.5223 82.2474 85.6453 74.332C86.6332 74.5574 87.6653 74.6572 88.7183 74.6254C95.8551 74.4432 101.533 68.4801 101.351 61.3432C101.243 55.8298 97.6104 51.1652 92.6351 49.4443ZM49.0148 20.2056C50.0411 17.5298 52.5975 15.5901 55.6512 15.5178C58.3831 15.4387 60.8001 16.897 62.1093 19.0947C62.729 20.1349 63.0849 21.3323 63.1189 22.6222C63.1413 23.8594 62.8685 25.0343 62.3476 26.0592C61.1733 28.3865 58.7933 30.0226 56.0146 30.0899C53.5342 30.1581 51.321 28.9754 49.9523 27.1109C49.1019 25.9501 48.577 24.5357 48.5381 22.9709C48.5207 22.0086 48.6962 21.0703 49.0148 20.2056ZM34.7741 67.4765C33.4904 69.2536 31.4131 70.4315 29.0614 70.4826C28.8859 70.4879 28.7251 70.4845 28.5643 70.4811C24.7744 70.317 21.6869 67.2334 21.5938 63.3784C21.5368 61.0501 22.5758 58.9622 24.2473 57.5695C25.4584 56.5701 27.0104 55.9433 28.6981 55.9106C29.4995 55.8898 30.2801 56.0004 31.031 56.228C33.9412 57.1146 36.097 59.8005 36.1805 63.0062C36.2191 64.6705 35.6906 66.2159 34.7741 67.4765ZM59.1093 80.8696C50.9341 81.0748 43.4634 77.6644 38.2896 72.1116C40.5668 69.703 41.9313 66.4287 41.8519 62.8632C41.6934 56.5658 37.0449 51.3949 31.0377 50.4079C31.9843 41.4671 37.2351 33.7537 44.7184 29.4546C47.0459 33.3284 51.3342 35.8952 56.1662 35.776C61.5481 35.6467 66.098 32.2216 67.9292 27.4982C77.1342 30.8878 84.0692 39.0637 85.6404 49.0653C79.702 50.3598 75.3126 55.7538 75.4711 62.0512C75.5651 65.6079 77.0934 68.8065 79.4961 71.107C74.5701 76.8999 67.2932 80.679 59.1093 80.8696ZM89.0959 68.9614C88.9291 68.9813 88.7683 68.9779 88.5928 68.9832C86.2265 69.043 84.1124 67.9601 82.7403 66.2565C81.7643 65.0513 81.1783 63.5345 81.1251 61.8789C81.0416 58.6732 83.0538 55.8864 85.9291 54.8484C86.6436 54.5816 87.428 54.432 88.2294 54.4112C89.9317 54.3697 91.5005 54.904 92.7639 55.8586C94.503 57.1451 95.6488 59.2019 95.7058 61.5302C95.8048 65.3619 92.8786 68.6136 89.0959 68.9614ZM48.4908 67.5433L44.6218 63.7143L67.8977 40.2411L71.7667 44.07L48.4908 67.5433ZM44.8318 44.4733L48.6607 40.6043L72.134 63.8803L68.305 67.7492L44.8318 44.4733Z" fill="white"/>
</svg>
