<svg width="103" height="103" viewBox="0 0 103 103" fill="none" xmlns="http://www.w3.org/2000/svg">
<path d="M84.4428 62.5223C83.6571 62.4958 82.8938 62.3852 82.1606 62.1754L82.1041 64.5629C82.0785 65.5392 82.0027 65.6159 81.0416 65.5979L69.8212 65.327C69.6153 65.3205 69.394 65.3063 69.1422 65.2771C68.9066 63.9436 68.6788 62.633 68.4353 61.2386C69.2972 61.2647 70.0829 61.2912 70.8761 61.3024C72.4017 61.3327 73.3358 60.5577 73.3594 59.2C73.3983 57.8499 72.5245 57.0001 70.9837 56.9622C60.3353 56.6884 49.6794 56.43 39.0464 56.1638C35.6444 56.0819 32.2347 55.9773 28.8252 55.9107C27.109 55.8813 26.1912 56.8546 26.3747 58.4476C26.5021 59.4995 27.2682 60.182 28.4355 60.2447C29.2899 60.2861 30.1518 60.3122 31.0215 60.3612C31.0443 60.3535 31.0674 60.3839 31.1439 60.4216C30.8529 61.7044 30.5545 63.0025 30.2485 64.3158C30.0197 64.317 29.8367 64.3408 29.6461 64.3417C25.855 64.239 22.0718 64.1591 18.2807 64.0564C17.3959 64.038 17.3115 63.9393 17.3299 63.0545C17.4829 57.1582 17.6207 51.2544 17.7737 45.3581C17.8631 41.9409 20.1784 39.7936 23.6872 39.8902C39.6215 40.2819 55.5329 40.6814 71.4597 41.0885C73.5039 41.1467 75.5403 41.144 77.5697 41.2709C79.8737 41.4194 81.7041 42.9125 82.3322 44.9533C83.1549 44.7508 84.0238 44.6473 84.9086 44.6656C85.5646 44.6852 86.2132 44.7581 86.8394 44.9151C86.5214 43.8642 86.2566 42.7826 85.7256 41.8548C83.9939 38.7748 81.2172 37.1568 77.6238 36.9234C76.9753 36.8886 76.3346 36.8766 75.6862 36.8417C75.648 36.8419 75.6097 36.804 75.4951 36.7665C75.3338 35.0513 75.1801 33.3208 75.0187 31.5674C74.8167 29.3567 74.6377 27.1382 74.4205 24.9199C74.2681 23.4564 73.4408 22.7437 71.9075 22.6904C70.4505 22.6369 68.986 22.5985 67.5215 22.5602C67.4833 22.5604 67.445 22.5225 67.338 22.4697C67.3016 21.3106 67.2803 20.1209 67.2437 18.9237C67.2034 17.002 66.4446 16.266 64.4919 16.2149L37.2913 15.5297C35.4302 15.4858 34.6178 16.2068 34.4821 18.0227C34.3968 19.2358 34.2962 20.4413 34.2112 21.7307C32.6704 21.6928 31.1906 21.6469 29.7185 21.6239C29.2684 21.6109 28.7957 21.6438 28.3924 21.806C27.5399 22.146 27.1392 22.842 27.014 23.7121C26.7049 25.9178 26.4033 28.1082 26.0942 30.314C25.8513 32.0388 25.6009 33.779 25.3504 35.5192C24.1532 35.5558 22.9937 35.5159 21.8656 35.6437C17.7343 36.1147 14.2957 39.305 13.5303 43.2824C13.493 43.4351 13.425 43.5727 13.3801 43.7407L12.8661 64.1221C13.2325 65.6913 13.9336 67.0835 15.5006 67.7619C16.3414 68.1389 17.3263 68.3399 18.257 68.3809C21.6059 68.5316 24.9695 68.5755 28.3334 68.6576L29.2716 68.6833C28.9437 70.1951 28.6305 71.6 28.3098 73.0202C27.7578 75.4483 27.198 77.8536 26.646 80.2817C26.2881 81.8928 27.2093 83.0702 28.9179 83.1149C42.4648 83.4502 56.0041 83.8008 69.5585 84.1207C71.3433 84.1651 72.3139 83.0466 72.0076 81.3169C71.3638 77.6898 70.7276 74.0856 70.0838 70.4585C70.0369 70.2452 70.0358 70.0164 70.0037 69.6963L70.9038 69.7222C74.2829 69.8118 77.6695 69.886 81.0411 69.9909C82.8413 70.0428 84.4328 69.5542 85.5159 68.092C85.978 67.4642 86.2104 66.6851 86.5652 65.9664L86.6461 62.3738C85.9144 62.469 85.1979 62.5337 84.4428 62.5223ZM69.6487 26.9195C69.8318 26.9339 70.1304 27.1764 70.1465 27.3365C70.4365 30.3705 70.7113 33.3969 70.9784 36.4386C70.9864 36.4996 70.9486 36.5761 70.9261 36.6601L67.6767 36.5774C67.5994 33.3822 67.5144 30.1642 67.4213 26.847C68.2679 26.8656 68.9619 26.8468 69.6487 26.9195ZM38.7931 19.8846L62.8205 20.4868C62.9543 25.802 63.0881 31.1172 63.2297 36.4552L37.6005 35.8229C37.993 30.5203 38.3933 25.2406 38.7931 19.8846ZM30.4157 31.2301C30.6367 29.7036 30.873 28.1846 31.0406 26.6508C31.114 26.0784 31.3189 25.8943 31.8989 25.9524C32.5169 26.0103 33.1346 25.9919 33.8516 26.0035C33.6013 29.2843 33.3736 32.481 33.1307 35.7084L29.7897 35.6186C30.011 34.1303 30.2095 32.6878 30.4157 31.2301ZM31.4964 78.7393C32.8914 72.6003 34.2791 66.5528 35.6743 60.4519L63.8969 61.1472C64.9807 67.3118 66.0644 73.4382 67.156 79.6255L31.4964 78.7393Z" fill="white"/>
<path d="M84.8238 45.9443C86.3493 45.9746 87.8826 46.0279 89.4081 46.0582C89.7132 46.0567 89.9044 46.1701 90.0658 46.421C90.7267 47.3938 91.3876 48.3667 92.0635 49.309C92.2633 49.5978 92.2414 49.7962 92.014 50.0643C89.6486 52.8525 87.2757 55.6559 84.9103 58.4441C84.5919 58.8194 84.386 58.8129 84.0865 58.4178C81.8599 55.4928 79.6257 52.5832 77.399 49.6582C77.1995 49.4075 77.2213 49.2091 77.4031 48.9565C78.138 48.007 78.8805 47.0423 79.6002 46.0853C79.7669 45.8632 79.9802 45.8164 80.2243 45.8228C81.7728 45.8836 83.2983 45.9139 84.8238 45.9443ZM84.5073 57.1801C84.5301 57.1724 84.5683 57.1722 84.5836 57.1797C85.54 54.7801 86.4964 52.3804 87.4678 49.9501C85.6067 49.9062 83.8218 49.8619 81.9988 49.8178C82.8275 52.2999 83.6788 54.7361 84.5073 57.1801ZM78.5051 49.6907C78.49 49.7213 78.4749 49.7518 78.4522 49.7977C80.0492 51.8793 81.6539 53.9838 83.2509 56.0654C82.6303 54.0093 81.9411 51.9765 81.2444 49.9589C81.2135 49.8676 81.1138 49.7613 81.0375 49.7617C80.1984 49.7278 79.3442 49.7245 78.5051 49.6907ZM85.8137 56.1133C85.829 56.1209 85.8596 56.136 85.8749 56.1435C87.573 54.1291 89.2711 52.1146 91.0376 50.0387C90.8011 50.0171 90.6636 49.9872 90.5111 49.988C89.8932 49.9683 89.2678 49.9638 88.6575 49.9288C88.3753 49.9226 88.2307 49.9844 88.1329 50.2594C87.6814 51.4439 87.1992 52.6132 86.7248 53.8054C86.416 54.5849 86.1149 55.3491 85.8137 56.1133ZM85.7582 46.7098C86.3486 47.3246 86.9235 47.8937 87.4529 48.5164C87.9134 49.086 88.4562 49.335 89.2109 49.2701C89.8284 49.2136 90.4542 49.2943 91.1712 49.3059C90.6025 48.4546 90.0722 47.6793 89.5192 46.9119C89.4654 46.8282 89.2898 46.7986 89.1601 46.7917C88.4126 46.7649 87.6575 46.7536 86.9099 46.7269C86.5133 46.7212 86.1395 46.7079 85.7582 46.7098ZM83.8283 46.651C82.6613 46.6264 81.5019 46.5866 80.3501 46.5696C80.251 46.5777 80.1066 46.6776 80.046 46.7618C79.6748 47.2442 79.3035 47.7265 78.9323 48.2089C78.7581 48.4462 78.5685 48.676 78.3488 48.9669C79.3633 48.9923 80.2787 49.0257 81.1864 49.0364C81.2626 49.036 81.354 49.005 81.4148 48.959C82.2117 48.1922 83.001 47.4408 83.8283 46.651ZM86.9758 49.1747C86.2474 48.4157 85.5265 47.6415 84.7828 46.8749C84.0238 47.6034 83.2574 48.3471 82.4984 49.0755C83.9858 49.106 85.4884 49.1441 86.9758 49.1747Z" fill="white"/>
<path d="M38.2338 72.237L45.1795 65.7952L52.1697 72.5932L38.2338 72.237Z" fill="white"/>
<path d="M49.2207 69.94L54.9667 66.044L61.9416 72.8345L52.1706 72.5944L49.2207 69.94Z" fill="white"/>
<path d="M38.7923 64.1128C38.7721 64.9226 39.4273 65.5958 40.2559 65.6165C41.0845 65.6373 41.7727 64.9976 41.7929 64.1879C41.8132 63.3781 41.1579 62.7049 40.3293 62.6841C39.5007 62.6634 38.8126 63.3031 38.7923 64.1128Z" fill="white"/>
</svg>
