<svg width="108" height="111" viewBox="0 0 108 111" fill="none" xmlns="http://www.w3.org/2000/svg">
<path d="M84.1402 64.7417C83.9146 64.7405 83.689 64.7391 83.4634 64.738C82.8214 64.7344 82.1619 64.7482 81.5195 64.7967C81.2244 64.8124 81.051 64.7767 80.9474 64.6894C80.8439 64.5847 80.7929 64.3935 80.7946 64.0812L80.7798 63.6126L80.5889 63.6289C79.8942 63.7291 79.1133 63.7248 78.3676 63.634L78.1768 63.6155L78.1752 63.8932C78.1904 64.2924 78.1371 64.5177 77.9975 64.6557C77.8752 64.7939 77.6494 64.8448 77.2155 64.8598C62.3073 65.1247 46.8089 65.4384 29.8179 65.7787C29.436 65.7939 29.2281 65.7407 29.1073 65.6186C28.9865 65.4965 28.9356 65.2879 28.9202 64.9407C28.7531 54.3195 28.5632 44.6872 28.3535 35.4887C28.3384 35.0895 28.3917 34.8468 28.514 34.7087C28.6362 34.5705 28.8621 34.5197 29.2786 34.522C38.737 34.3833 48.317 34.2277 57.7236 34.054C60.5178 33.9999 63.3468 33.9288 66.0891 33.8571C67.3908 33.8295 68.6752 33.7846 69.9768 33.7571C70.2024 33.7583 70.4453 33.7769 70.6882 33.7782C70.775 33.7787 70.879 33.7967 70.9658 33.7972C70.9829 33.832 71.0002 33.8495 71.0173 33.8842C70.8254 34.0741 70.6335 34.2465 70.459 34.4365C69.9182 34.9541 69.3599 35.489 68.8189 36.0413L68.6618 36.214C67.161 37.7329 65.6252 39.3035 64.1587 40.9093C63.8095 41.2892 63.5468 41.7216 63.2842 42.154C63.144 42.3961 62.9865 42.6383 62.8291 42.8456L62.8116 42.8802C62.7415 43.0013 62.5143 43.2951 62.4275 43.2946C62.2193 43.2935 61.9079 43.1355 61.8047 42.9615C61.1165 41.8817 60.4458 40.7674 59.7924 39.6705L59.3453 38.9219C59.1219 38.5389 58.8804 38.2598 58.6559 38.0678C58.414 37.8755 58.1716 37.7874 57.9286 37.7861C57.4427 37.8007 56.9894 38.18 56.5862 38.924C55.5868 40.758 54.5877 42.592 53.5885 44.4086C52.8171 45.8273 52.0283 47.2634 51.257 48.6821C51.1342 48.9244 50.9941 49.1492 50.819 49.4258C50.7839 49.4951 50.7488 49.5643 50.6964 49.6334C50.6792 49.5986 50.662 49.5812 50.6448 49.5463C50.5071 49.3548 50.3864 49.1979 50.2832 49.0411C49.7672 48.188 49.2687 47.3349 48.7528 46.4818C48.1509 45.472 47.549 44.4795 46.9471 43.487C46.4655 42.7034 45.9806 42.5445 45.6509 42.5427C45.3212 42.5409 44.8169 42.7291 44.3611 43.5595L42.0998 47.6772C40.2767 51.0164 38.4361 54.3555 36.6129 57.6947C36.1923 58.4559 36.1196 59.0629 36.3775 59.4981C36.6354 59.9334 37.1895 60.1447 38.0398 60.1321C48.3142 59.9456 58.5712 59.7419 68.8283 59.538C69.6787 59.5254 70.2353 59.2855 70.4808 58.8357C70.7262 58.3859 70.6253 57.7952 70.1955 57.064C69.886 56.5417 69.5592 56.002 69.2498 55.4797C68.4244 54.1042 67.5646 52.6765 66.7568 51.249C66.5849 50.9531 66.6223 50.4674 66.6765 50.0685C66.6951 49.8604 66.7136 49.6523 66.7321 49.4441C66.7704 48.7849 66.8263 48.091 67.1239 47.6068C67.3342 47.2609 67.7344 47.0375 68.1522 46.8142C68.5003 46.6252 68.8659 46.419 69.1451 46.1255C71.0998 44.1233 73.0547 42.0689 74.9398 40.0837C75.6381 39.3413 76.3537 38.5817 77.0519 37.8394C77.1741 37.7186 77.2788 37.5977 77.4358 37.4597C77.4707 37.4251 77.5231 37.3734 77.5753 37.339C77.575 37.3737 77.5922 37.4258 77.5919 37.4606C77.6254 37.6863 77.6592 37.8601 77.6582 38.0336L77.8057 45.9129L77.9968 45.8792C78.7263 45.7618 79.4205 45.7309 80.2531 45.8049L80.444 45.8233L80.4451 45.6324C80.3774 42.1614 80.327 38.7077 80.2593 35.2366C80.2613 34.8722 80.4549 34.3874 80.7517 34.0593C81.4153 33.2994 82.1136 32.5397 82.8118 31.8147C83.1783 31.435 83.545 31.0379 83.8941 30.658C85.4303 29.0005 85.4427 26.7446 83.941 25.296C82.491 23.8997 80.2864 24.0264 78.7158 25.6143C78.0353 26.3047 77.3545 27.0124 76.6738 27.7202C75.7837 28.635 74.8762 29.5844 73.9687 30.4992C73.7245 30.7408 73.2717 31.0159 72.9072 31.0313C70.5468 31.105 68.1517 31.1439 65.8434 31.2007C64.1426 31.2259 62.4418 31.2687 60.7409 31.3113C60.4805 31.3099 60.3246 31.2744 60.2383 31.1872C60.152 31.0999 60.1009 30.9261 60.1023 30.6657C60.095 28.8436 60.0687 27.3338 60.0071 25.9104C59.9469 24.2268 59.0147 23.3366 57.3139 23.3619C54.2767 23.4146 51.2049 23.4672 48.185 23.5373C46.5015 23.5801 45.6114 24.4949 45.6367 26.1956C45.6485 27.2196 45.6775 28.2436 45.6892 29.2675L45.7167 30.5866C45.7313 31.0898 45.7296 31.3849 45.6424 31.4711C45.5551 31.5748 45.2427 31.5731 44.7741 31.5878L27.7138 31.9104C26.0477 31.9359 25.6986 32.2984 25.7243 33.9472L25.952 46.1653C25.9777 47.7966 26.0208 49.4281 26.0466 51.0421C26.1258 55.5719 26.2213 60.2752 26.3347 64.8918C26.3497 65.3084 26.2788 65.5857 26.1394 65.7064C25.9998 65.8444 25.774 65.8779 25.3923 65.8584C24.8719 65.8209 24.3512 65.8353 23.8304 65.8672C23.6569 65.8662 23.466 65.8825 23.2924 65.8816C22.008 65.9266 21.5542 66.3927 21.582 67.6595C21.5925 68.8917 21.6204 70.124 21.6483 71.3562C21.6914 73.0051 22.0883 73.389 23.685 73.3631L40.485 73.0391C40.728 73.0405 40.9882 73.0593 41.2657 73.0782C41.3352 73.0785 41.4218 73.0964 41.4912 73.0967L41.4733 73.2008C41.4021 73.5128 41.3487 73.7728 41.2778 74.0327C40.7454 76.1816 40.2302 78.348 39.6977 80.4969C38.7568 84.3441 37.8333 88.1915 36.8923 92.0388C36.7325 92.6974 36.6774 93.2524 36.744 93.756C36.9263 95.3363 38.2038 96.5406 39.7651 96.6186C39.8693 96.6193 39.956 96.6197 40.0602 96.6202C41.6048 96.5941 42.8251 95.5943 43.2327 94.0347C43.7648 91.9552 44.2972 89.8063 44.8307 87.4666C44.9553 86.9119 45.1818 86.7396 45.7371 86.7427C47.3162 86.7514 48.6179 86.7238 49.833 86.6611C50.1455 86.6455 50.3362 86.6813 50.4397 86.7859C50.5606 86.8907 50.5942 87.0991 50.6097 87.4289C50.5988 89.4072 50.6407 91.2469 50.7175 93.0695C50.764 94.0762 51.141 94.9459 51.8145 95.5397C52.4879 96.1508 53.4234 96.4336 54.4478 96.3351C56.2535 96.1715 57.4411 94.7898 57.4522 92.7768C57.4585 91.6315 57.4303 90.4514 57.4018 89.3232C57.3875 88.7678 57.3731 88.2298 57.3588 87.6744C57.3446 87.1016 57.3465 86.7546 57.4513 86.6337C57.5735 86.5129 57.9206 86.4974 58.5106 86.5007C58.8924 86.4854 59.2569 86.4874 59.6387 86.4895C60.4196 86.4938 61.218 86.4809 61.9992 86.4158C62.6762 86.3674 62.9527 86.5772 63.1397 87.2898C63.7348 89.5142 64.3648 91.7042 65.0128 93.7902C65.4391 95.1462 66.424 95.9326 67.8636 96.0619C69.3553 96.1916 70.6436 95.4352 71.067 94.188C71.3667 93.322 71.407 92.3157 71.2029 91.551C70.2505 88.0404 69.2288 84.4947 68.2413 81.0532C67.9179 79.9061 67.5772 78.7589 67.2537 77.6117C66.8453 76.1518 66.4367 74.7092 65.9942 73.1276L65.8411 72.5888C65.9279 72.5719 66.032 72.5725 66.1014 72.5729C66.3618 72.557 66.5702 72.5408 66.7959 72.5247C69.2083 72.4685 71.6032 72.4297 74.0157 72.3735L76.4976 72.3178C78.9794 72.262 81.4612 72.2237 83.9258 72.1678C85.0886 72.1394 85.5943 71.6911 85.5997 70.7019C85.6082 69.1749 85.5821 67.5956 85.5039 66.0333C85.5257 65.2352 84.9906 64.729 84.1402 64.7417ZM60.2361 47.3259C60.5361 46.4252 61.4414 45.9095 62.4992 46.0369C63.349 46.1456 64.1604 46.9137 64.312 47.7475C64.5141 48.8419 64.0751 49.7766 63.2055 50.1188C62.2838 50.4955 61.2931 50.7851 60.3544 51.0576C59.972 51.177 59.5896 51.279 59.2246 51.3984C59.2073 51.3809 59.1728 51.3461 59.1383 51.3112C59.2445 50.93 59.3336 50.5313 59.4397 50.1501C59.6878 49.2145 59.9361 48.244 60.2361 47.3259ZM48.8565 52.8511C48.4711 53.5257 48.0855 54.2177 47.7173 54.8925C47.3666 55.55 46.9987 56.1901 46.6307 56.8301C46.5081 57.0376 46.2814 57.2447 46.1599 57.244C44.4242 57.3038 42.6886 57.3463 40.8316 57.3708L39.7904 57.3824C41.7889 53.7145 43.6997 50.2197 45.6807 46.5863C45.8527 46.8649 46.0074 47.1261 46.1621 47.3872C46.4201 47.8051 46.6609 48.1882 46.8843 48.5886C47.1079 48.9542 47.3142 49.3025 47.5205 49.668C47.9332 50.3471 48.3458 51.0609 48.7758 51.7574C49.0685 52.1581 49.0843 52.4532 48.8565 52.8511ZM66.9865 56.8208L49.6138 57.1589L57.9936 41.743C58.0967 41.9172 58.1827 42.0738 58.286 42.2306C58.6642 42.8747 58.9909 43.4145 59.2828 43.9714C59.2998 44.0409 59.1769 44.2832 59.0548 44.404C58.1828 45.1975 57.6045 46.2355 57.3019 47.5874C57.0884 48.5581 56.8402 49.5284 56.6093 50.4816C56.4139 51.2788 56.2187 52.076 56.0408 52.8733C55.8985 53.4972 55.9997 54.0357 56.3449 54.3673C56.6902 54.699 57.2102 54.7887 57.8012 54.6183C58.8267 54.329 59.8521 54.0396 60.8777 53.7328C61.9033 53.4262 62.946 53.1196 63.9889 52.8303C64.1975 52.762 64.5443 52.8159 64.5961 52.8683C65.2498 53.8958 65.8688 54.9404 66.5222 56.0373L66.9865 56.8208ZM68.9217 42.5668L68.9039 42.6708C68.6946 42.8605 68.5025 43.0678 68.2933 43.2574C67.8396 43.7062 67.3511 44.172 66.8802 44.6033C66.4616 44.9827 66.0452 44.9804 65.6482 44.5966C65.2165 44.195 65.2017 43.7437 65.5859 43.2947C65.8304 43.001 66.1097 42.7075 66.3715 42.4486C66.6158 42.1897 66.8777 41.9135 67.1222 41.6372C67.2618 41.4817 67.3664 41.3956 67.4705 41.3961C67.5746 41.3967 67.6958 41.4668 67.8685 41.6239C68.1101 41.8509 68.3869 42.0259 68.6462 42.2009C68.7325 42.2708 68.8364 42.3234 68.9228 42.3933C68.9398 42.4455 68.9394 42.5149 68.9217 42.5668ZM76.3035 31.9351C77.6301 30.5368 78.974 29.1385 80.3005 27.7575C80.5448 27.5159 80.8235 27.3092 81.0501 27.1369C81.1198 27.0852 81.1722 27.0335 81.2244 26.999C81.7103 27.0017 82.0911 27.1774 82.2976 27.4908C82.4698 27.7521 82.468 28.0818 82.3274 28.3934C82.2045 28.653 81.995 28.8775 81.7682 29.1018C79.1675 31.8293 76.5841 34.5569 73.9834 37.2845L71.278 40.1156C71.0161 40.3918 70.8417 40.5644 70.7376 40.5638C70.5988 40.5457 70.3744 40.3535 69.9771 40.0043L69.839 39.882C69.5799 39.6551 69.4594 39.4809 69.4603 39.3246C69.4611 39.1685 69.5663 38.9782 69.8629 38.6675C72.0098 36.4407 74.1915 34.1447 76.3035 31.9351ZM48.2709 26.8349C48.255 26.5919 48.2907 26.4185 48.3779 26.3322C48.4652 26.2459 48.6389 26.1948 48.8992 26.1963C51.3462 26.175 53.9495 26.1373 56.6396 26.0827C56.9172 26.0843 57.0731 26.1198 57.1768 26.2072C57.2631 26.2944 57.3143 26.4509 57.3128 26.7111C57.306 27.9606 57.3334 29.2796 57.3947 30.755C57.4107 30.9981 57.3751 31.1539 57.2879 31.2403C57.2006 31.3266 57.0616 31.3779 56.8186 31.3765C55.8989 31.3715 54.9617 31.401 54.0592 31.4134C53.6774 31.4287 53.2956 31.4266 52.9138 31.4418L52.74 31.4756C52.445 31.4739 52.1672 31.4898 51.8722 31.4882C50.9524 31.5004 50.0152 31.5126 49.0779 31.5595C48.7828 31.5752 48.5922 31.5395 48.5059 31.4349C48.4023 31.3475 48.3685 31.1738 48.37 30.9135C48.3599 29.5946 48.3325 28.2756 48.2709 26.8349ZM45.4987 73.3097C45.3921 73.7603 45.3031 74.1763 45.1967 74.5922L44.6463 76.8452C43.3503 82.1483 42.0543 87.4513 40.7582 92.7543C40.7405 92.8236 40.7227 92.9103 40.7048 92.9969C40.6337 93.3263 40.5447 93.7075 40.3357 93.8453C40.2139 93.914 40.0577 93.9131 39.8672 93.86C39.6765 93.8069 39.5382 93.7194 39.4867 93.6149C39.3491 93.3886 39.4552 93.0248 39.5439 92.6955C39.5616 92.6089 39.5969 92.5223 39.6146 92.453C40.4489 89.0389 41.2834 85.6249 42.1178 82.2108C42.7746 79.542 43.4314 76.8731 44.0882 74.187C44.2838 73.3551 44.3371 73.1124 44.8752 73.0981C45.0487 73.099 45.2568 73.1175 45.5517 73.1365L45.4987 73.3097ZM50.0569 83.8164C49.5881 83.8485 49.0849 83.8631 48.6163 83.8605C48.4428 83.8596 48.2519 83.8585 48.0783 83.8749L47.9047 83.8913C47.8006 83.8907 47.6964 83.8901 47.6095 83.907C47.1929 83.9221 46.7764 83.9371 46.3601 83.9001C46.2734 83.8997 46.1698 83.7949 46.0661 83.725C46.0488 83.7076 46.0315 83.7074 46.0142 83.69C46.0317 83.6727 46.0492 83.6381 46.0668 83.6035C46.1194 83.517 46.2069 83.3787 46.2417 83.3616C47.4741 83.2989 48.741 83.2711 50.112 83.2614C50.1813 83.2964 50.3017 83.488 50.3013 83.5575C50.3009 83.6268 50.1264 83.7994 50.0569 83.8164ZM50.4256 79.8965C50.4249 80.0179 50.2325 80.2946 50.163 80.3116C49.243 80.3759 48.3231 80.3882 47.3339 80.4001C47.091 80.3988 46.848 80.3974 46.5876 80.4133L46.8184 79.4602C47.138 78.1604 47.4222 76.9472 47.7065 75.7513C47.8485 75.1795 47.9904 74.6249 48.1324 74.0531C48.2919 73.4466 48.4847 73.0832 48.7634 72.9113C49.0419 72.7566 49.4237 72.7413 50.0129 72.9008C50.1169 72.9187 50.3064 73.18 50.3229 73.3363C50.3689 74.4299 50.3975 75.5233 50.4089 76.6166C50.4029 77.7098 50.4141 78.8205 50.4256 79.8965ZM54.7441 92.9528C54.3593 93.506 54.1679 93.5917 54.0812 93.5912C53.925 93.5904 53.6315 93.3111 53.4078 92.9628C53.339 92.8583 53.3575 92.6501 53.3586 92.4593C53.359 92.3725 53.3769 92.2685 53.36 92.1816C53.319 90.1684 53.2781 88.1552 53.237 86.1592L53.1278 80.779C53.0885 78.4708 53.0496 76.0932 52.9757 73.75C52.9603 73.4029 52.979 73.16 53.1011 73.0392C53.1884 72.9356 53.3796 72.8846 53.6573 72.8861C54.3168 72.8724 54.35 73.1329 54.3465 73.7576C54.4128 77.489 54.4791 81.203 54.5627 84.9345L54.6952 92.3798C54.6948 92.4493 54.6944 92.5187 54.7113 92.5882C54.7111 92.6402 54.7281 92.7098 54.7277 92.7792C54.7621 92.8488 54.7617 92.9182 54.7441 92.9528ZM57.2465 79.7259C57.2021 78.32 57.1753 76.8794 57.1483 75.491C57.1351 74.7448 57.1219 73.9811 57.1086 73.2348C57.0933 72.8703 57.2153 72.7669 57.6322 72.7171C57.9274 72.6841 58.153 72.6679 58.3265 72.6689C58.9687 72.6551 59.0369 72.881 59.3091 73.8543C59.5304 74.6364 59.769 75.436 59.9902 76.2182C60.2969 77.2611 60.5862 78.2866 60.8929 79.3295C60.9439 79.5206 60.9775 79.7117 61.0281 79.9722L61.062 80.1286C60.8017 80.1272 60.5413 80.1431 60.2811 80.1417C59.3437 80.1712 58.476 80.1838 57.6084 80.1616C57.5043 80.1611 57.263 79.8647 57.2465 79.7259ZM61.6861 83.3945C61.5641 83.498 61.442 83.6014 61.3377 83.6182C60.9557 83.6681 60.5567 83.666 60.1749 83.6639C60.0708 83.6633 59.984 83.6628 59.8798 83.6622L59.7063 83.6613C59.5328 83.6603 59.3765 83.6768 59.2029 83.6759C58.769 83.6908 58.3178 83.7057 57.9015 83.6687C57.8494 83.6684 57.7286 83.5462 57.6423 83.459C57.6251 83.4416 57.6079 83.4241 57.5906 83.4066C57.608 83.3895 57.6256 83.3549 57.643 83.3375C57.6956 83.2511 57.8004 83.1301 57.8352 83.113C59.1371 83.0507 60.2998 83.0225 61.3756 83.0457C61.445 83.0461 61.5657 83.203 61.652 83.2902C61.6692 83.3076 61.6864 83.3425 61.7036 83.3599C61.7035 83.3773 61.7035 83.3772 61.6861 83.3945ZM67.4834 92.6239C65.6446 86.1929 63.8059 79.7445 61.9846 73.3138C61.9505 73.1921 61.934 73.0532 61.9001 72.8968C61.9002 72.8795 61.9003 72.8621 61.9003 72.8448C63.0297 72.5907 63.0642 72.6429 63.3535 73.6858C65.0388 79.6125 66.7241 85.5567 68.4268 91.4837L68.4779 91.6575C68.546 91.8835 68.6143 92.0921 68.6652 92.318C68.8179 92.9261 68.7122 93.2206 68.2951 93.3225C67.878 93.4416 67.6708 93.2496 67.4834 92.6239ZM82.8826 69.3508C82.7604 69.489 82.4997 69.5743 82.1179 69.5722C80.3652 69.5799 78.5775 69.6221 76.8591 69.6821C75.6789 69.7102 74.5161 69.7386 73.336 69.7667C70.8021 69.8049 68.2683 69.843 65.7343 69.8984C62.194 69.9483 58.6535 70.0156 55.0957 70.0828L54.28 70.0956C49.4725 70.1906 44.6477 70.2855 39.8402 70.3979C35.0327 70.4929 30.2251 70.6052 25.4003 70.7001C25.0012 70.7153 24.5331 70.6259 24.4119 70.5732C24.2936 69.9999 24.3143 69.3753 24.37 68.7334C24.4571 68.6819 24.7004 68.6138 24.874 68.5974C25.5161 68.5836 26.1583 68.5871 26.783 68.5733C27.3383 68.5763 27.8937 68.562 28.4316 68.565C34.02 68.4569 39.6085 68.3489 45.1969 68.2409L53.4061 68.0778L53.4058 68.1125L78.4497 67.6257C79.9076 67.599 81.1052 67.5536 82.1987 67.5075C82.5285 67.492 82.7365 67.5279 82.8399 67.6499C82.9435 67.7546 82.9772 67.9457 82.9585 68.1885C82.9403 68.3446 82.9394 68.5182 82.9732 68.6745C83.0235 68.9872 82.9876 69.2125 82.8826 69.3508Z" fill="white"/>
</svg>
