<svg width="85" height="93" viewBox="0 0 85 93" fill="none" xmlns="http://www.w3.org/2000/svg">
<path d="M72.9467 35.3079L72.6952 35.7791C71.7562 37.5905 70.8038 39.3818 69.8815 41.1966C69.8513 41.2601 69.841 41.3973 69.8643 41.5411C70.0006 42.0731 70.1203 42.6017 70.2768 43.1203C70.483 43.9099 70.6859 44.7163 70.8754 45.5025C70.9917 46.0478 71.0578 46.583 71.134 47.155C71.1704 47.4059 71.2035 47.6735 71.2365 47.9411L71.2962 48.3358L67.2828 48.3101C66.9194 49.8548 66.9273 51.3699 66.9485 52.9921C66.9449 53.1827 66.9446 53.3566 66.961 53.5339L71.1484 53.5598L71.1479 53.9076C71.1511 53.9779 71.1577 54.0313 71.1476 54.0815C71.1408 54.2019 71.154 54.3089 71.1338 54.4092C70.6198 58.4286 69.3938 62.1829 67.4592 65.5681C67.2379 65.9758 66.8966 66.0288 66.6191 66.0251C64.9334 66.0161 63.2512 65.9903 61.5656 65.9812L58.7328 65.9672C58.6291 65.9637 58.5421 65.9636 58.4418 65.9434L57.9135 65.8891L57.991 65.5046C58.5867 62.8064 59.0053 60.0378 59.2604 57.0448L54.15 57.0242C54.1332 57.1078 54.1364 57.178 54.1196 57.2616C53.8786 59.7529 53.4067 62.3544 52.6903 65.2196C52.5289 65.8481 52.124 65.9579 51.7461 65.9339C44.2779 65.8732 37.5354 65.837 31.1374 65.818C30.4585 65.8204 30.2784 65.4187 30.1786 65.0507C29.5135 62.3073 29.0526 59.5006 28.7827 56.4366C28.7334 55.8178 28.7008 55.2024 28.6582 54.5501C28.6319 54.2491 28.6223 53.9514 28.596 53.6504L28.5664 53.2792L51.4661 53.4217C51.47 53.0572 51.4738 52.6926 51.4777 52.3281C51.503 50.9937 51.5114 49.7428 51.2791 48.4783C51.2159 48.1872 51.2159 48.1872 50.9049 48.1767C44.7878 48.1447 38.654 48.1093 32.537 48.0773L29.4801 48.053C29.3597 48.0461 29.256 48.0426 29.1356 48.0357L28.654 48.0082L28.6547 47.5735C28.6481 47.5199 28.6581 47.4698 28.6682 47.4197C28.9012 43.5002 29.4717 39.7184 30.3965 36.1645C30.5545 35.5527 31.0228 35.56 31.2836 35.5604L46.0529 35.648L45.416 34.3193C44.8058 33.0308 44.1788 31.739 43.5719 30.4338C43.5619 30.397 43.5452 30.3936 43.5452 30.3936C43.5452 30.3936 43.475 30.3969 43.4416 30.3901L43.3713 30.3934L32.3579 30.3143L32.576 29.8364C33.6463 27.4599 34.6721 25.7355 35.9117 24.2456C37.2149 22.699 38.8592 21.0993 41.368 20.8219C41.4206 19.0928 41.7073 17.411 42.2783 15.6994C41.8469 15.682 41.4155 15.6647 40.9807 15.6641C28.6964 15.59 14.0297 23.3687 8.42898 39.0801C2.78455 54.9218 9.28151 72.5833 23.8884 81.0755C38.7126 89.6984 57.4733 86.3804 68.502 73.1717C78.8038 60.8081 78.0535 45.0175 72.9467 35.3079ZM20.4022 29.6453C22.9309 27.1104 25.82 25.1177 29.2504 23.5473L30.1707 23.1239L29.7112 24.0229C29.5368 24.3705 29.3491 24.698 29.178 25.0289C28.7823 25.7842 28.4134 26.4926 28.0579 27.2212C27.8231 27.6958 27.6218 28.1772 27.4204 28.6585C27.256 29.0429 27.0916 29.4273 26.9272 29.8117C26.8098 30.049 26.4984 30.2994 26.2174 30.3124C25.1037 30.3142 23.9899 30.3159 22.8762 30.3176L21.729 30.3127L20.8628 30.2948C20.7926 30.298 20.7425 30.2879 20.679 30.2578L19.9635 30.0962L20.4022 29.6453ZM11.7883 47.5331C11.8423 47.1786 11.9097 46.8442 11.9603 46.5065C12.0785 45.7474 12.1865 45.0386 12.3514 44.3064C12.9844 41.3373 14.0719 38.5295 15.5438 35.973C15.6779 35.7391 15.8989 35.5053 16.3371 35.4892C18.2468 35.5086 20.1599 35.5113 22.0696 35.5307L24.3438 35.5539C24.4307 35.5541 24.4976 35.5675 24.6013 35.571L25.1129 35.6219L25.0188 36.003C24.1306 39.7209 23.6034 43.5463 23.3969 47.6798L23.3831 48.0076L11.7242 47.9377L11.7883 47.5331ZM16.2645 65.7268C15.8297 65.7262 15.5356 65.5452 15.3321 65.1737C13.5473 61.9437 12.3985 58.4069 11.9121 54.6905C11.879 54.4229 11.8425 54.172 11.8262 53.9077L11.8229 53.8375C11.8163 53.784 11.8264 53.7338 11.8232 53.6636L11.8272 53.2121L23.3656 53.2751L23.3853 53.6096C23.5366 57.7804 24.0362 61.6039 24.8738 65.3041L24.9536 65.6855L24.4384 65.7384C24.3314 65.7516 24.2444 65.7514 24.1574 65.7513L21.7929 65.7447C19.9334 65.7354 18.1073 65.7327 16.2645 65.7268ZM28.7861 77.7479C25.5775 76.2317 22.674 74.1507 20.1592 71.6087L19.6683 71.1096L20.5079 71.0004C20.5982 70.9838 20.6685 70.9805 20.7387 70.9773L21.5046 70.9751C22.9461 70.9871 24.4411 70.9926 25.8993 71.008C26.1601 71.0084 26.5245 71.1861 26.6445 71.4539C27.368 73.0435 28.0848 74.6666 28.7782 76.2328L29.6284 78.1438L28.7861 77.7479ZM50.4504 71.6747C50.333 71.912 50.2157 72.1493 50.0983 72.3866C49.8567 72.8946 49.6186 73.3859 49.3504 73.8537C48.0527 76.2366 46.7929 77.8268 45.2727 79.0689C43.9435 80.1406 42.6919 80.6538 41.3541 80.6453C41.2671 80.6451 41.1802 80.645 41.0932 80.6448C40.0967 80.5832 39.154 80.2542 38.2017 79.6274C36.6646 78.6219 35.3856 77.1987 34.1778 75.1635C33.7373 74.4137 33.3405 73.6205 32.9402 72.844C32.7802 72.516 32.6167 72.2048 32.4566 71.8768C32.4066 71.7797 32.3866 71.7061 32.3533 71.6124C32.3433 71.5756 32.33 71.5555 32.32 71.5187L32.1701 71.0536L50.6919 71.1666L50.4504 71.6747ZM62.6209 71.7955C60.9158 73.7831 56.4298 76.8804 53.7259 77.9535L52.9328 78.2635L53.3388 77.3711C53.3723 77.2909 53.4059 77.2106 53.4361 77.1471L53.852 76.2915C54.5933 74.7708 55.3178 73.2468 56.0557 71.7428C56.0825 71.696 56.3174 71.2214 56.6986 71.2286C58.2137 71.2207 59.6886 71.2395 61.2705 71.2451L63.0967 71.2476L62.6209 71.7955Z" fill="white"/>
<path d="M69.7202 19.7331C69.2138 15.9431 66.8472 12.6654 63.3947 10.9782C59.9422 9.29106 55.8951 9.43257 52.5847 11.3577C48.2667 13.8801 46.0992 18.7667 47.136 23.5509C47.7309 26.2106 48.9448 28.734 50.0287 30.953C50.4722 31.86 50.9291 32.787 51.3893 33.6974C52.4265 35.8025 53.5037 37.968 54.494 40.1333C55.8278 43.0114 56.6132 45.7617 56.9237 48.5381C56.9832 49.0198 57.0059 49.5115 57.0487 49.9898C57.0586 50.1136 57.0551 50.2173 57.0649 50.341L59.3225 50.3609C59.3586 48.4546 59.6992 46.5052 60.4348 44.2353C61.5703 40.6716 63.3476 37.2895 64.9204 34.3185L65.3463 33.4996C66.6071 31.1268 67.8983 28.6905 68.8316 26.1299C69.6912 23.7632 69.9783 21.7335 69.7202 19.7331ZM58.3176 27.7171L58.3008 27.7137C56.5985 27.7013 54.9941 27.0301 53.7784 25.811C52.5627 24.5919 51.8994 22.9622 51.9186 21.2264C51.9378 19.4907 52.6089 17.8862 53.8281 16.6705C55.0438 15.4715 56.6568 14.805 58.3758 14.8208L58.3925 14.8241C61.9343 14.8592 64.7965 17.7495 64.7815 21.2779C64.7598 24.8398 61.8661 27.7187 58.3176 27.7171Z" fill="white"/>
</svg>
