<svg width="126" height="124" viewBox="0 0 126 124" fill="none" xmlns="http://www.w3.org/2000/svg">
<path d="M19.6443 42.1603C21.5931 42 23.5345 41.8882 25.473 41.7138C27.3975 41.5498 29.3501 41.3652 31.3269 41.1843C31.3785 50.9622 31.4207 60.6393 31.4658 70.379C29.5916 70.3769 27.7136 70.3992 25.7629 70.4102C25.7195 62.5206 25.6827 54.6692 25.6542 46.6825C23.6167 46.6926 21.6417 46.7 19.6667 46.7073C19.6512 45.1904 19.6459 43.6875 19.6443 42.1603Z" fill="#A4A4A4"/>
<path d="M107.304 79.6772C107.314 81.0691 106.026 82.1005 104.694 81.7223C100.146 80.4536 95.4861 79.6765 90.7989 79.156C84.8532 78.5045 78.8898 78.2103 72.9109 78.4227C68.779 78.5709 64.6267 78.6911 60.537 79.1312C55.6515 79.6604 50.7913 80.4293 45.9507 81.3129C39.9105 82.4097 34.0031 84.0979 28.2367 86.2423C27.1705 86.6373 26.1314 87.0986 25.0858 87.5217C23.751 88.0493 22.6099 87.6384 22.0804 86.4771C21.5921 85.3718 22.1038 84.2213 23.3835 83.648C28.4045 81.4265 33.6235 79.8561 38.934 78.4983C45.7511 76.7883 52.6458 75.6239 59.6396 74.9465C67.9087 74.1296 76.2031 73.8752 84.5278 74.3951C91.2776 74.8224 97.9716 75.6135 104.538 77.3162C104.992 77.4354 105.435 77.5407 105.871 77.6944C106.78 77.9954 107.296 78.7574 107.304 79.6772Z" fill="#A4A4A4"/>
<path d="M56.0663 55.6798C55.9199 58.0905 55.975 60.4825 55.5757 62.842C54.7606 67.8316 50.6916 71.2916 44.7057 70.4974C39.9952 69.8864 36.8368 66.5217 36.5596 61.7742C36.3406 57.7805 36.3025 53.74 36.4968 49.7228C36.7503 44.6719 40.4721 41.2083 45.5638 40.8722C50.5268 40.566 54.591 43.6103 55.47 48.5618C55.9076 50.8884 55.8861 53.2934 56.0663 55.6798ZM42.0127 55.3609C42.0509 55.3544 42.0994 55.3618 42.1377 55.3553C42.1362 56.1744 42.1486 56.9832 42.1471 57.8023C42.1418 58.6457 42.0844 59.5058 42.1901 60.3538C42.3446 61.532 42.485 62.7205 42.8586 63.8455C43.2593 65.0366 44.1673 65.8339 45.4633 66.0452C47.6707 66.3838 49.2991 65.3178 49.8056 62.9871C50.0831 61.6641 50.1358 60.2694 50.1324 58.9157C50.1302 55.7746 50.1177 52.6195 49.9279 49.4868C49.8311 47.7712 49.1112 46.2331 47.3132 45.5724C45.0655 44.7683 42.855 46.0678 42.453 48.6876C42.1181 50.8708 42.1433 53.134 42.0127 55.3609Z" fill="#A4A4A4"/>
<path d="M79.3282 55.6092C79.1818 58.0199 79.2537 60.4641 78.8162 62.8302C77.8948 68.0269 73.6597 71.1138 67.9406 70.3605C63.258 69.729 60.0688 66.3224 59.8364 61.6066C59.6211 57.5886 59.6036 53.5762 59.7736 49.5552C60.0251 44.0322 64.8924 40.223 70.395 40.7693C75.3742 41.2477 78.5533 44.963 78.9516 49.4064C79.1455 51.4596 79.0027 53.5233 79.0194 55.5991C79.1407 55.6177 79.2275 55.6185 79.3282 55.6092ZM65.299 55.6169C65.3373 55.6103 65.3858 55.6178 65.424 55.6112C65.4367 57.0656 65.4252 58.5163 65.4482 59.9847C65.475 61.4289 65.5604 62.8945 66.3278 64.204C67.6815 66.5469 71.0056 66.6472 72.4143 64.3432C72.845 63.6396 73.2113 62.7896 73.2231 61.9845C73.2847 57.6986 73.3081 53.4194 73.1683 49.1522C73.0834 46.9543 71.5892 45.4464 69.8212 45.2372C67.7967 45.0011 66.0554 46.2361 65.7401 48.534C65.3931 50.8767 65.438 53.2547 65.299 55.6169Z" fill="#A4A4A4"/>
<path d="M84.7788 68.2261C86.6222 65.8399 88.3286 63.6188 90.0349 61.3978C94.5599 55.4504 99.0885 49.4788 103.593 43.5035C103.97 42.9902 104.358 42.7269 105.02 42.7789C105.967 42.8373 106.919 42.7847 108.06 42.7861C106.822 44.3837 105.679 45.847 104.556 47.3383C99.4263 54.0742 94.2822 60.8204 89.1866 67.574C88.8416 68.0425 88.4751 68.2469 87.8957 68.2201C86.9311 68.1963 85.9692 68.2349 84.7788 68.2261Z" fill="#A4A4A4"/>
<path d="M94.4954 49.0033C94.3978 49.7208 94.3589 50.4597 94.2025 51.1557C93.5133 54.0294 91.4391 55.5733 88.4864 55.4803C86.0403 55.4029 83.9666 53.5454 83.6025 50.8205C83.4265 49.3783 83.4426 47.8166 83.7938 46.418C84.4103 43.856 86.8316 42.3156 89.4149 42.5506C92.1158 42.8284 94.0496 44.7886 94.354 47.5788C94.4082 48.0341 94.4103 48.5061 94.4506 48.9716C94.4712 48.9996 94.4954 49.0033 94.4954 49.0033ZM91.2461 49.0635C91.0293 48.2109 90.8956 47.3834 90.6191 46.5961C90.3763 45.9133 89.808 45.491 89.0029 45.4792C88.1735 45.4636 87.5551 45.853 87.2493 46.5509C86.5065 48.237 86.4886 49.9722 87.3429 51.6054C88.0814 53.0222 89.9146 52.9682 90.5997 51.4967C90.9269 50.74 91.0328 49.8873 91.2461 49.0635Z" fill="#A4A4A4"/>
<path d="M109.539 61.96C109.225 63.116 109.084 64.3606 108.583 65.4384C107.614 67.549 105.782 68.4845 103.479 68.367C101.272 68.2644 99.7569 67.1381 98.9239 65.1233C98.1282 63.1888 98.0696 61.1438 98.7498 59.1378C99.5455 56.7025 101.716 55.2603 104.147 55.4347C106.679 55.5997 108.544 57.2016 109.101 59.7203C109.267 60.4162 109.277 61.1625 109.367 61.8715C109.436 61.9069 109.47 61.9246 109.539 61.96ZM106.173 61.8905C105.942 61.0482 105.795 60.231 105.504 59.454C105.241 58.7433 104.661 58.3937 103.87 58.3716C103.075 58.3738 102.509 58.7462 102.193 59.4302C101.44 61.1023 101.474 62.8207 102.263 64.481C102.592 65.1647 103.196 65.518 103.97 65.4878C104.706 65.4642 105.283 65.1057 105.522 64.4349C105.774 63.6045 105.942 62.7489 106.173 61.8905Z" fill="#A4A4A4"/>
</svg>
