<svg width="116" height="114" viewBox="0 0 116 114" fill="none" xmlns="http://www.w3.org/2000/svg">
<path d="M59.8535 101.432L70.7535 87.6773L66.4779 86.9069L56.6194 99.3171L24.8519 74.2489L66.8578 21.0265L98.6254 46.0948L87.6295 60.0187L90.6476 62.4041C94.2665 57.8287 97.8758 53.2389 101.495 48.6634C103.031 46.7156 102.829 44.6369 100.939 43.1249C88.2056 33.065 75.4822 23.0194 62.7347 12.9691C60.6905 11.3516 58.6697 11.6401 57.0522 13.6843C54.302 17.1557 51.5615 20.6414 48.8113 24.1128C47.2898 26.0509 45.7684 27.9891 44.2229 29.9224C43.5221 30.8096 42.9351 30.8686 42.0143 30.2112C41.8167 30.0721 41.6238 29.9089 41.4165 29.7554C40.3125 28.8867 40.3028 28.8722 39.4485 29.9666C35.3929 35.1061 31.342 40.2216 27.296 45.3755C26.1777 46.793 26.1627 46.5523 27.5224 47.6467C28.9785 48.8227 29.0178 49.1932 27.8323 50.6974C23.7238 55.914 19.5914 61.1259 15.483 66.3426C13.7455 68.5507 13.9617 70.5572 16.1505 72.2658C28.7775 82.2297 41.3901 92.2034 54.0218 102.143C56.1721 103.857 58.1497 103.597 59.8535 101.432ZM22.0303 49.6128C21.4132 49.128 20.8732 48.6961 20.2657 48.2257C26.9947 39.6873 33.6854 31.2162 40.424 22.6921C41.0074 23.1577 41.5714 23.5944 42.1886 24.0792C35.4932 32.5743 28.7881 41.055 22.0303 49.6128ZM64.5333 89.0241C67.3692 89.4847 70.1942 89.4304 72.9892 88.8322C73.3597 88.7929 73.7542 88.6958 74.1583 88.6131C74.6057 88.5014 75.0578 88.3657 75.5002 88.2155C76.1543 88.0071 76.7795 87.7555 77.294 87.557C77.7846 87.4164 78.2413 87.1939 78.6884 86.9571L78.7028 86.9475C79.0538 86.7542 79.4047 86.5609 79.77 86.3579C84.0147 83.9951 87.2803 80.7007 89.4173 76.3451C94.0459 66.9161 92.2314 55.9753 84.8224 48.5316C84.8031 48.5027 84.7693 48.4836 84.75 48.4547C84.75 48.4547 84.7404 48.4403 84.697 48.4067C84.4076 48.0993 82.8059 46.3942 80.5937 44.9937C80.3479 44.845 80.0924 44.682 79.8419 44.5574L79.8322 44.5429C75.2446 41.9348 70.2853 41.0168 64.9539 41.6638C55.0996 42.855 46.5883 50.6659 44.7615 60.4113L45.2433 60.6316L45.7491 60.8567L47.9122 61.8097C48.0119 61.179 48.1501 60.5434 48.3027 59.8982C48.709 60.8165 49.0911 61.6676 49.4539 62.4898L57.1764 65.8803C58.454 64.6695 59.6883 63.4876 60.9515 62.2864L65.7005 66.0397L60.9633 72.0326C59.5935 70.6736 58.2477 69.3193 56.8875 67.9747L54.172 69.7518C55.5907 71.4332 57.1679 72.9458 58.9518 74.3617L54.1138 80.4847C53.5688 79.9517 53.0239 79.4812 52.5414 78.9481C51.0071 77.2188 49.8285 75.2722 49.0007 73.1322L46.1988 74.9673C47.674 78.2609 50.0004 81.235 53.1635 83.8992C56.4712 86.6546 60.2772 88.3452 64.5333 89.0241ZM85.0336 76.7542L77.9366 71.1482C79.3918 69.7348 80.7749 68.3698 82.1725 66.995C84.2427 69.4932 85.9673 74.5623 85.0336 76.7542ZM71.008 65.5131C70.8779 65.4123 70.8 65.0467 70.872 64.9358C72.3213 63.046 73.8141 61.1897 75.3739 59.1841C76.6183 60.4183 77.7711 61.5468 78.9239 62.6753C79.3435 63.0835 79.7199 63.5207 80.1299 63.9145C80.3807 64.1642 80.3571 64.3471 80.1121 64.5739C78.652 65.9488 77.2014 67.338 75.7317 68.6985C75.5972 68.8095 75.2171 68.8344 75.0772 68.7192C73.7177 67.6874 72.3533 66.6171 71.008 65.5131ZM88.0966 71.0682C87.1294 69.0008 86.1961 67.015 85.2434 64.9379C86.3442 64.305 87.4979 63.6576 88.7814 62.9232C88.8839 65.7578 88.7501 68.3956 88.0966 71.0682ZM83.9018 52.3021C85.6099 54.2909 86.8277 56.5455 87.7331 58.9885C87.9074 59.4357 87.8308 59.6332 87.3837 59.87C85.9222 60.6193 84.4849 61.4358 82.9803 62.2765C81.4839 60.2921 79.6994 58.5634 77.7803 56.9456C77.6501 56.8449 77.5867 56.4696 77.6683 56.3731C79.1369 54.4496 80.6632 52.5499 82.2518 50.525C82.8307 51.1397 83.3951 51.7016 83.9018 52.3021ZM69.7645 44.979C73.3121 45.1926 76.5777 46.2636 79.5372 48.2496C79.5709 48.2688 79.5854 48.3217 79.6723 48.4514L77.7189 50.9295C76.903 51.9565 76.0727 52.9931 75.2904 54.0393C75.0169 54.4105 74.7907 54.4158 74.4148 54.1664C72.4436 52.9386 70.4676 51.7349 68.4773 50.5408C68.1737 50.3682 68.0819 50.1999 68.1773 49.8436C68.5591 48.3555 68.9168 46.8627 69.3129 45.365C69.3415 45.2206 69.6153 44.9745 69.7645 44.979ZM65.9578 45.1269C65.571 46.5139 65.2033 47.8046 64.8306 49.0568C62.6156 48.5563 60.4823 48.0845 58.3395 47.5982C60.5889 46.2168 63.1141 45.4653 65.9578 45.1269ZM53.2564 51.6715C56.7957 50.2824 60.0701 51.0549 63.4608 52.1256C62.6419 53.99 61.5963 55.672 60.4064 57.3255L53.2564 51.6715ZM62.9861 59.5242C64.1705 57.5194 65.3502 55.5387 66.5682 53.4905C68.6689 54.5062 70.6448 55.7099 72.5252 57.2074L67.7351 63.2775L62.9861 59.5242ZM83.0663 79.4923C79.527 80.8813 76.2381 80.1185 72.7318 79C73.7964 77.2217 74.8034 75.5446 75.8488 73.8L83.0663 79.4923ZM54.0493 64.2364C52.2615 61.0686 50.6763 58.0784 51.1493 54.2944L58.3764 60.0011C56.9452 61.4193 55.5381 62.7796 54.0493 64.2364ZM64.1334 73.46C65.4869 71.7388 66.8499 70.0319 68.1793 68.306C68.4673 67.9251 68.6837 67.8429 69.0791 68.1837C70.3617 69.2253 71.6633 70.2332 72.9603 71.2651C73.1869 71.4475 73.4471 71.5864 73.1976 71.9624C72.0274 73.8324 70.8812 75.7072 69.6247 77.7602C67.6969 76.566 65.7354 75.3527 63.7305 74.1058C63.932 73.7829 64.0278 73.6142 64.1334 73.46ZM71.9686 82.1012C72.9558 82.3589 73.924 82.713 74.9159 82.9467C75.8983 83.1659 76.9284 83.2694 77.9347 83.4309C77.3157 84.2841 72.7612 85.8102 70.3695 85.9503C70.7469 84.674 71.0956 83.4796 71.4781 82.3044C71.5019 82.184 71.8241 82.0726 71.9686 82.1012ZM56.7175 82.6256L61.6035 76.4496C62.5578 77.0635 63.4736 77.6823 64.423 78.2578C65.6086 78.9675 66.7941 79.6772 68.018 80.3195C68.5047 80.5783 68.5678 80.8284 68.41 81.31C67.9703 82.7116 67.5643 84.1323 67.1584 85.553C67.0724 85.8612 66.9958 86.0588 66.5867 86.0404C63.1593 85.7881 60.0045 84.7264 57.0839 82.9232C56.9731 82.8512 56.8766 82.7696 56.7175 82.6256ZM44.5007 62.1734L44.7759 60.4016C44.7568 60.4979 44.7378 60.5942 44.7332 60.6809C44.6332 61.1864 44.5718 61.6871 44.5007 62.1734ZM41.423 69.9579L33.5891 70.673L33.2062 67.2951L40.8428 66.566L39.3824 61.2364L54.7532 67.0023L40.8672 75.4891L41.423 69.9579Z" fill="#A4A4A4"/>
</svg>
