<svg width="112" height="107" viewBox="0 0 112 107" fill="none" xmlns="http://www.w3.org/2000/svg">
<path d="M67.976 74.4342C71.3068 74.5424 74.067 73.4246 76.0827 70.8212C76.8698 69.8135 77.4783 68.5705 77.8365 67.3279C81.3998 54.9364 84.8764 42.5403 88.3915 30.1392C88.4632 29.9032 88.5204 29.6769 88.5921 29.4409C88.9222 28.5305 89.8211 28.0328 90.6976 28.2812C91.6126 28.5246 92.1393 29.4668 91.8863 30.4299C91.3994 32.2599 90.8644 34.0804 90.3437 35.8912C90.2865 36.1175 90.2148 36.3535 90.1241 36.6858C92.2693 36.0843 94.2334 36.2725 96.0217 37.4766C97.2604 38.2969 98.11 39.4405 98.5991 40.8256C99.5534 43.5909 98.5831 46.6637 96.2189 48.3727C93.475 50.3568 90.6491 50.0358 87.1345 47.3145C85.7973 52.0534 84.4504 56.7779 83.0942 61.613C85.1528 61.0069 87.0495 61.2193 88.8087 62.3176C90.1244 63.1281 91.0221 64.2812 91.5355 65.7336C92.5622 68.6384 91.4526 71.8463 88.8429 73.5317C85.9352 75.3959 82.9836 74.8248 79.7667 71.7997C79.0514 72.6339 78.4132 73.5209 77.6159 74.2639C73.8791 77.7278 69.5061 78.6518 64.6228 77.286C54.9766 74.5783 45.3543 71.8753 35.7224 69.0953C31.3446 67.8295 27.2207 68.1899 23.2598 70.4462C21.7649 71.3014 20.2216 72.0845 18.6977 72.8964C17.6497 73.4522 16.6481 73.2041 16.1551 72.2811C15.6815 71.387 16.0162 70.3899 17.0306 69.8775C19.6074 68.5483 22.1456 67.1614 24.7902 65.9957C26.8193 65.0961 29.0327 64.8457 31.2661 64.9371C31.8629 64.955 32.1031 64.7523 32.2704 64.2226C32.7769 62.5465 33.3315 60.8801 33.9055 59.2424C34.0682 58.7992 33.9282 58.6215 33.5571 58.4105C26.0493 54.1868 22.6564 45.5358 25.276 37.348C27.8141 29.3818 36.1147 24.2186 44.5015 25.3889C45.0262 25.4552 45.2136 25.3296 45.3714 24.848C46.0645 22.671 46.801 20.5276 47.5038 18.3651C47.9818 16.8961 48.9579 16.4512 50.3311 17.1605C54.5231 19.3026 58.7247 21.4592 62.9167 23.6014C65.1331 24.7276 67.3448 25.8778 69.5468 27.0137C73.2329 28.9307 74.7947 32.229 74.1106 36.3215C73.1747 41.8777 72.3157 47.4241 71.4423 52.9801C70.5639 58.4351 69.6855 63.8901 68.8167 69.3596C68.5027 71.0111 68.2465 72.6865 67.976 74.4342ZM64.5811 73.6379C64.6381 73.2864 64.7096 72.9879 64.7571 72.6846C65.1084 70.465 65.4596 68.2455 65.8254 66.0163C66.6325 60.985 67.43 55.9393 68.2372 50.908C69.0538 45.8286 69.8368 40.7299 70.6775 35.6552C71.1146 33.0649 70.2008 31.1706 67.8591 29.9821C63.5853 27.8113 59.3403 25.6211 55.0808 23.4405C53.4908 22.6258 51.9007 21.8111 50.2384 20.9821C49.9132 21.931 49.612 22.822 49.3396 23.6938C49.0768 24.5799 48.8381 25.4709 48.5753 26.357C57.4002 29.803 61.937 39.9435 58.7223 48.8641C55.5458 57.6547 45.9016 62.4648 37.2809 59.9473C36.6881 61.7438 36.0808 63.55 35.4784 65.3947C45.2259 68.16 54.8674 70.8918 64.5811 73.6379ZM38.137 46.5077C40.0922 47.0569 42.115 47.6444 44.1713 48.1886C44.3254 48.2316 44.657 48.0094 44.7288 47.836C45.0353 47.1086 45.332 46.3667 45.5325 45.6059C46.0431 43.5929 46.4911 41.5801 46.9631 39.5721C44.5979 38.6291 42.3729 37.9891 40.1775 37.6426C39.4958 40.6473 38.8283 43.5173 38.137 46.5077ZM36.7113 37.27C36.2973 37.2131 36.0806 37.1703 35.8785 37.1803C34.3239 37.1982 32.7789 37.1679 31.2245 37.2483C28.6595 37.3791 28.5635 37.4852 28.0925 39.9937C28.0878 40.0178 28.0686 40.0516 28.0782 40.066C28.1847 40.3497 28.1952 40.7395 28.4025 40.8931C29.3523 41.6563 30.331 42.4001 31.3384 43.0621C32.4228 43.7768 33.5889 44.3952 34.9335 45.1863C35.5531 42.432 36.1299 39.8943 36.7113 37.27ZM46.9743 35.9094C47.0319 35.8082 47.0751 35.7792 47.0702 35.7408C46.931 33.7244 46.7919 31.7081 46.6286 29.687C46.6187 29.5475 46.4787 29.3697 46.3631 29.3218C44.2921 28.6622 42.1788 28.4695 39.9992 28.8016C40.0899 30.6207 40.1948 32.3675 40.2706 34.0086C42.5437 34.6581 44.759 35.2838 46.9743 35.9094ZM50.3017 41.0327C49.5567 43.6622 48.869 46.128 48.1095 48.7671C49.9191 48.7246 51.6181 48.7353 53.2977 48.6546C55.266 48.5685 55.2611 48.53 55.7911 46.6085C56.2207 45.0048 56.2543 44.9614 54.8805 44.0019C53.3959 42.9703 51.82 42.0208 50.3017 41.0327ZM33.953 54.5737C35.568 55.7686 37.408 56.4576 39.3678 56.8576C39.4881 56.8814 39.6997 56.7606 39.7716 56.6498C40.899 54.9964 42.0168 53.3287 43.1729 51.5935C40.8757 50.9392 38.7422 50.3423 36.6473 49.7404C35.7508 51.3644 34.8735 52.9546 33.953 54.5737ZM95.362 43.913C95.8588 42.2225 94.9116 40.4342 93.2115 39.923C91.5355 39.4165 89.7424 40.3878 89.2215 42.0735C88.715 43.7495 89.6863 45.5426 91.372 46.0635C93.0721 46.5747 94.8652 45.6034 95.362 43.913ZM86.119 64.8503C84.3997 64.3728 82.6548 65.3537 82.182 67.0489C81.7092 68.7441 82.6998 70.5034 84.4191 70.9809C86.1142 71.4537 87.8833 70.4776 88.356 68.7824C88.8288 67.0872 87.8239 65.3375 86.119 64.8503ZM50.4586 31.3824C50.4773 33.3124 50.4814 35.1894 50.524 37.0615C50.5244 37.2492 50.78 37.4749 50.968 37.5996C51.6089 37.964 52.2882 38.2609 52.9243 38.6494C53.9556 39.2535 54.9677 39.8914 56.0955 40.5772C55.3891 36.6851 53.5151 33.7004 50.4586 31.3824ZM43.8682 56.9969C47.4623 56.4692 50.3707 54.9179 52.7905 52.2318C51.207 52.2064 49.7104 52.3107 48.2613 52.1118C47.0432 51.946 46.4376 52.289 45.9443 53.3923C45.3983 54.6352 44.6018 55.7536 43.8682 56.9969ZM33.4677 48.3613C31.6026 47.2295 29.8099 46.1746 27.9785 45.062C28.432 47.7659 29.5057 50.1171 31.3489 52.2452C32.0919 50.8911 32.7822 49.6141 33.4677 48.3613ZM36.6131 29.7957C34.7614 30.3677 31.8591 32.5206 31.3418 33.6817C33.1419 33.6873 34.9467 33.6689 36.8093 33.6745C36.7391 32.3848 36.6785 31.1095 36.6131 29.7957Z" fill="#A4A4A4"/>
</svg>
