<svg width="117" height="120" viewBox="0 0 117 120" fill="none" xmlns="http://www.w3.org/2000/svg">
<path d="M68.1451 16.4615L75.3562 14.8477L73.9029 39.0889L66.6775 40.7123L68.1451 16.4615Z" fill="#A4A4A4"/>
<path d="M27.7118 25.4739L34.9469 23.8649L48.3969 44.7861L41.1618 46.3951L40.5292 45.4195L27.7118 25.4739Z" fill="#A4A4A4"/>
<path d="M38.3447 100.438L30.6502 65.9707C32.5917 66.8424 34.8159 67.107 37.0528 66.6112C37.1442 66.5917 37.2356 66.5722 37.3029 66.548L43.1747 92.8379L91.853 81.974L83.7599 45.7263L44.7894 54.4319C44.2644 52.0892 42.9702 50.0946 41.22 48.6979L88.5754 38.1354L99.4392 86.8137L38.3447 100.438Z" fill="#A4A4A4"/>
<path d="M40.529 45.4174C41.0061 45.6618 41.4542 45.9254 41.8976 46.2133L41.152 46.3786L40.529 45.4174Z" fill="#A4A4A4"/>
<path d="M37.1447 64.689C41.503 63.7121 44.2466 59.3889 43.2696 55.0305C42.2926 50.6721 37.9694 47.9286 33.6014 48.8912C29.243 49.8681 26.4995 54.1914 27.462 58.5594C28.4631 62.9225 32.7863 65.666 37.1447 64.689ZM30.3944 56.9502L34.2813 56.0802L33.4113 52.1932L35.2297 51.7898L36.0998 55.6767L40.2465 54.758L40.65 56.5764L36.5032 57.4952L37.4219 61.6418L35.6036 62.0454L34.6848 57.8986L30.7978 58.7686L30.3944 56.9502Z" fill="#A4A4A4"/>
</svg>
