<svg width="103" height="103" viewBox="0 0 103 103" fill="none" xmlns="http://www.w3.org/2000/svg">
<path d="M67.3049 18.7997L67.7145 19.0058C75.3657 22.7575 81.2509 28.8619 84.7526 36.6463L84.7671 36.6992C92.9798 55.0715 84.5327 76.7916 65.9634 85.1154C61.1888 87.2484 56.1665 88.3568 51.0168 88.4018L50.5644 88.4124L50.6982 87.9886C51.1332 86.6111 51.26 85.2103 51.0788 83.786L51.0251 83.4252L51.8048 83.4042C55.9725 83.2651 60.0517 82.308 63.932 80.5861C79.977 73.3892 87.2564 54.6653 80.1852 38.8703C77.2155 32.2542 72.2804 27.0382 65.8767 23.7458L65.5587 23.5828L65.7554 23.284C66.518 22.0839 67.03 20.6967 67.2194 19.2957L67.3049 18.7997Z" fill="#A4A4A4"/>
<path d="M36.0968 18.4793C39.6789 16.8736 43.4356 15.8402 47.285 15.413L47.7469 15.3542L47.6324 15.8069C47.3034 17.2178 47.2632 18.6233 47.5502 20.0184L47.6184 20.3696L47.2575 20.4233C44.1396 20.82 41.1045 21.6834 38.21 22.9748C30.4014 26.4717 24.3942 32.7513 21.3313 40.6513C19.8046 44.5772 19.082 48.6746 19.1633 52.8184C19.2687 56.9669 20.1824 61.0126 21.9042 64.8303C24.3854 70.3742 28.3807 75.0291 33.4511 78.2956L33.774 78.497L33.5292 78.7864C32.6268 79.8712 31.9317 81.1723 31.5641 82.5255L31.4399 82.9637L31.0496 82.724C24.9962 78.9254 20.2386 73.4443 17.2882 66.857C9.0948 48.5136 17.5131 26.8128 36.0968 18.4793Z" fill="#A4A4A4"/>
<path d="M43.5364 53.093C51.7441 49.4123 59.9372 45.7413 68.1448 42.0606C68.6672 43.2146 69.1798 44.3541 69.6878 45.5177C61.4946 49.1887 53.287 52.8694 45.0794 56.5501C44.5667 55.4105 44.054 54.271 43.5364 53.093Z" fill="#A4A4A4"/>
<path d="M60.3385 59.6572C60.8608 60.8111 61.3638 61.9362 61.8862 63.0902C54.3229 66.4855 46.774 69.8711 39.1963 73.2761C38.6836 72.1365 38.1709 70.997 37.6486 69.8431C45.1878 66.443 52.7367 63.0574 60.3385 59.6572Z" fill="#A4A4A4"/>
<path d="M28.6432 49.8525C28.1208 48.6986 27.6178 47.5734 27.1003 46.3954C32.2595 44.0883 37.4091 41.7668 42.5827 39.4501C43.0954 40.5896 43.608 41.7291 44.1256 42.9072C38.9905 45.219 33.8312 47.5261 28.6432 49.8525Z" fill="#A4A4A4"/>
<path d="M47.415 37.281C52.5887 34.9643 57.7238 32.6524 62.883 30.3453C63.4054 31.4993 63.9277 32.6532 64.4356 33.8169C59.2764 36.124 54.1268 38.4455 48.9676 40.7526C48.4453 39.5986 47.9326 38.4591 47.415 37.281Z" fill="#A4A4A4"/>
<path d="M39.7238 56.8868C39.3175 55.9685 38.8968 55.0597 38.4905 54.1414C38.1616 53.4009 38.4152 52.7506 39.146 52.4072C39.7903 52.1218 40.425 51.8221 41.0693 51.5367C41.7809 51.2271 42.4504 51.447 42.7648 52.1346C43.6208 54.0049 44.4527 55.8705 45.2943 57.7505C45.5942 58.4477 45.3261 59.1078 44.6242 59.4318C43.9895 59.7316 43.3452 60.0169 42.7009 60.3023C41.9604 60.6312 41.2957 60.3872 40.9524 59.6564C40.5461 58.738 40.1301 57.8052 39.7238 56.8868Z" fill="#A4A4A4"/>
<path d="M43.6113 41.0787C43.2147 40.1747 42.8036 39.2804 42.407 38.3765C42.0538 37.5687 42.3171 36.9328 43.1153 36.5652C43.7211 36.2848 44.3366 36.0187 44.9424 35.7382C45.7358 35.3948 46.3861 35.6484 46.7343 36.4177C47.5517 38.2304 48.369 40.0431 49.172 41.8654C49.5202 42.6348 49.2666 43.2851 48.4684 43.6526C47.8385 43.9283 47.2039 44.2281 46.574 44.5038C45.8479 44.8231 45.1832 44.5791 44.864 43.853C44.4336 42.9299 44.032 41.9874 43.6113 41.0787Z" fill="#A4A4A4"/>
<path d="M61.3483 61.2622C60.942 60.3438 60.5213 59.4351 60.115 58.5168C59.7861 57.7763 60.0397 57.1259 60.7705 56.7826C61.4148 56.4972 62.0495 56.1975 62.6938 55.9121C63.4054 55.6025 64.0749 55.8224 64.3893 56.51C65.2453 58.3803 66.0772 60.2459 66.9043 62.1356C67.2236 62.8616 66.9362 63.4928 66.2054 63.8361C65.5852 64.1263 64.9409 64.4116 64.311 64.6873C63.5705 65.0162 62.9058 64.7723 62.5625 64.0414C62.1706 63.1134 61.7546 62.1806 61.3483 61.2622Z" fill="#A4A4A4"/>
<path d="M66.704 60.9299C66.1817 59.776 65.669 58.6364 65.1611 57.4728C67.921 56.2298 70.6521 55.0062 73.3976 53.7728C73.9102 54.9124 74.4229 56.0519 74.9405 57.2299C72.2191 58.468 69.4736 59.7014 66.704 60.9299Z" fill="#A4A4A4"/>
<path d="M32.3769 58.1079C34.4925 57.1503 36.5889 56.2264 38.7045 55.2688C39.2269 56.4227 39.7395 57.5623 40.2475 58.7259C38.1463 59.6738 36.0355 60.6074 33.9199 61.565C33.4072 60.4255 32.8945 59.2859 32.3769 58.1079Z" fill="#A4A4A4"/>
<path d="M33.7366 87.6738C35.6132 91.8473 40.565 93.6894 44.777 91.8079C47.6859 90.5068 49.4944 87.7498 49.7382 84.8086C49.8508 83.48 49.6215 82.1088 49.0508 80.8202C48.4414 79.4739 47.5101 78.3642 46.3724 77.5388C44.0296 75.8498 40.8521 75.4092 37.996 76.6957C33.784 78.5772 31.8697 83.5147 33.7366 87.6738ZM43.574 78.7867C44.9565 79.3227 46.138 80.3693 46.7765 81.8214C47.3908 83.2062 47.4229 84.6886 46.983 86.0275C46.4714 87.5399 45.348 88.8563 43.7806 89.572C40.8043 90.8973 37.3073 89.6055 35.9869 86.6677C34.6665 83.7299 36.0161 80.2568 38.9972 78.9075C40.507 78.2303 42.1578 78.2315 43.574 78.7867Z" fill="#A4A4A4"/>
<path d="M41.5177 84.0131C40.9686 82.7889 39.524 82.2447 38.291 82.7977C37.058 83.3507 36.5036 84.7914 37.0527 86.0157C37.6017 87.2399 39.0463 87.7841 40.2793 87.2311C41.5123 86.6781 42.0668 85.2374 41.5177 84.0131Z" fill="#A4A4A4"/>
<path d="M42.9974 79.0512L43.5888 78.7804C44.9713 79.3164 46.1527 80.363 46.7912 81.8151C47.4055 83.1999 47.4376 84.6823 46.9978 86.0212L46.2717 86.3404C44.584 87.095 42.6043 86.3533 41.845 84.6897L41.2792 83.4396C40.544 81.7807 41.2953 79.8154 42.9974 79.0512Z" fill="#A4A4A4"/>
<path d="M49.5597 21.1165C51.4363 25.29 56.388 27.1321 60.6 25.2506C63.509 23.9495 65.3175 21.1926 65.5613 18.2513C65.6739 16.9227 65.4446 15.5515 64.8739 14.2629C64.2645 12.9166 63.3331 11.8068 62.1955 10.9815C59.8527 9.29251 56.6752 8.85189 53.8191 10.1384C49.6071 12.0199 47.6928 16.9574 49.5597 21.1165ZM59.3971 12.2294C60.7796 12.7654 61.9611 13.8121 62.5996 15.2642C63.2138 16.649 63.246 18.1313 62.8061 19.4702C62.2944 20.9826 61.1711 22.299 59.6037 23.0148C56.6274 24.3401 53.1303 23.0482 51.8099 20.1104C50.4896 17.1726 51.8392 13.6995 54.8202 12.3502C56.33 11.673 57.9664 11.6839 59.3971 12.2294Z" fill="#A4A4A4"/>
<path d="M57.3362 17.4486C56.7872 16.2243 55.3425 15.6802 54.1095 16.2331C52.8765 16.7861 52.3221 18.2269 52.8712 19.4511C53.4202 20.6753 54.8649 21.2195 56.0978 20.6665C57.3308 20.1135 57.8853 18.6728 57.3362 17.4486Z" fill="#A4A4A4"/>
<path d="M58.8058 12.5004L59.3972 12.2296C60.7797 12.7656 61.9612 13.8122 62.5997 15.2643C63.2139 16.6491 63.2461 18.1314 62.8062 19.4704L62.0802 19.7896C60.3925 20.5442 58.4127 19.8025 57.6534 18.1389L57.0876 16.8887C56.3524 15.2299 57.1181 13.2549 58.8058 12.5004Z" fill="#A4A4A4"/>
</svg>
