<svg width="110" height="110" viewBox="0 0 110 110" fill="none" xmlns="http://www.w3.org/2000/svg">
<path d="M61.2918 94.8101C75.2106 92.4838 86.1467 82.0253 89.4868 68.8017C95.6729 67.3105 100.05 61.4965 99.5443 54.9424C98.9801 47.8638 92.9328 42.5154 85.8873 42.786C79.8336 32.283 68.5272 25.3194 55.8689 25.1932C53.601 20.3419 48.5018 17.1573 42.8861 17.598C35.6438 18.1674 30.1952 24.5324 30.7646 31.7746C30.8535 32.8429 31.0628 33.8725 31.3826 34.8488C24.0149 41.8726 19.7297 52.0325 20.5959 62.9608C21.4525 73.8747 27.2534 83.252 35.6262 89.0477C35.4504 90.0636 35.4045 91.1177 35.4935 92.186C36.0629 99.4282 42.428 104.877 49.6702 104.308C55.2668 103.901 59.8111 99.9584 61.2918 94.8101ZM88.6537 48.9116C91.428 49.8104 93.5367 52.3036 93.7745 55.4027C94.002 58.1744 92.6503 60.709 90.4877 62.1576C89.464 62.8433 88.2665 63.2695 86.9576 63.3734C85.7016 63.4628 84.4931 63.2489 83.4236 62.7747C80.9955 61.7068 79.2048 59.3765 78.9868 56.5566C78.784 54.0398 79.8666 51.7272 81.6875 50.236C82.8213 49.3095 84.2302 48.6999 85.8182 48.5761C86.795 48.5066 87.7579 48.6344 88.6537 48.9116ZM39.8532 36.9864C37.9783 35.7776 36.6695 33.7302 36.491 31.3434C36.4762 31.1653 36.471 31.0017 36.4658 30.8381C36.4284 26.9782 39.3956 23.6748 43.3078 23.3726C45.6706 23.1894 47.8481 24.1328 49.3533 25.7562C50.434 26.933 51.1545 28.4764 51.2786 30.1895C51.3429 31.0028 51.2725 31.8019 51.0817 32.5772C50.3375 35.5821 47.7244 37.9173 44.4714 38.1747C42.7823 38.3036 41.1835 37.8498 39.8532 36.9864ZM27.5543 62.4354C26.9056 54.1393 29.9687 46.3645 35.3326 40.8082C37.9027 42.9924 41.3033 44.2026 44.9221 43.93C51.3126 43.4298 56.3166 38.4279 56.9961 32.2706C66.1322 32.7511 74.2528 37.6713 79.0242 45.0439C75.2132 47.6176 72.8358 52.1132 73.2172 57.0168C73.6383 62.4786 77.3636 66.9175 82.2619 68.5239C79.3133 78.06 71.3788 85.5471 61.3003 87.6822C59.6653 81.7177 53.9479 77.5478 47.5574 78.048C43.9483 78.335 40.7804 80.0602 38.5721 82.6255C32.4205 77.932 28.1886 70.7411 27.5543 62.4354ZM41.2693 92.2647C41.24 92.0963 41.2348 91.9327 41.22 91.7547C41.0318 89.3534 42.0184 87.1469 43.6756 85.6609C44.8477 84.6043 46.3574 83.9272 48.0368 83.7839C51.2898 83.5265 54.2299 85.4211 55.4395 88.287C55.7491 88.9986 55.9433 89.7876 56.0077 90.6008C56.1414 92.3284 55.6829 93.9513 54.781 95.2865C53.5674 97.1229 51.539 98.3979 49.1763 98.5812C45.2881 98.8881 41.8264 96.0898 41.2693 92.2647ZM40.5239 50.928L44.2064 46.7904L69.3117 69.1781L65.6293 73.3156L40.5239 50.928ZM63.7692 45.9677L67.9068 49.6502L45.5191 74.7555L41.3815 71.0731L63.7692 45.9677Z" fill="#A4A4A4"/>
</svg>
