<svg width="108" height="108" viewBox="0 0 108 108" fill="none" xmlns="http://www.w3.org/2000/svg">
<path d="M30.0136 27.7464C30.6932 28.1684 31.3103 28.6532 31.8506 29.2103L33.1118 27.1332C33.6297 26.2849 33.7356 26.2558 34.5741 26.7594L44.3334 32.6915C44.5117 32.8019 44.6997 32.9266 44.907 33.0801C44.4381 34.3758 43.9741 35.6474 43.4813 37.001C42.7343 36.5406 42.0547 36.1185 41.3608 35.7061C40.0306 34.9053 38.8134 35.1149 38.1037 36.3005C37.3843 37.4716 37.7239 38.6645 39.0637 39.4797C48.3169 45.1242 57.5846 50.7591 66.8282 56.3892C69.7872 58.1876 72.7416 60.01 75.7151 61.7987C77.2139 62.6954 78.5173 62.3027 79.1638 60.8045C79.5852 59.8121 79.2557 58.8213 78.258 58.1738C77.5254 57.7037 76.7784 57.2433 76.0361 56.7588C76.0121 56.7541 76.0071 56.7156 75.9589 56.6435C76.8663 55.6596 77.7882 54.6661 78.7246 53.663C78.9269 53.7781 79.1004 53.8499 79.2691 53.9458C82.5607 55.96 85.8571 57.9501 89.1488 59.9643C89.9199 60.4295 89.9442 60.5594 89.4791 61.3305C86.3523 66.4535 83.2351 71.5909 80.1084 76.714C78.2956 79.6827 75.1639 80.4019 72.1181 78.5364C58.2623 70.1056 44.4307 61.6797 30.5894 53.2393C28.8158 52.1506 27.0183 51.1198 25.2928 49.9781C23.3359 48.6781 22.4791 46.4323 22.9605 44.3136C22.1322 44.0748 21.3132 43.7252 20.5421 43.2601C19.9734 42.91 19.4383 42.5165 18.9657 42.0603C18.713 43.1486 18.3977 44.237 18.3953 45.3247C18.3598 48.92 19.988 51.7561 23.0391 53.7853C23.5934 54.145 24.1524 54.4807 24.7067 54.8405C24.7404 54.8597 24.755 54.9126 24.837 55.0038C24.1089 56.5985 23.3665 58.2029 22.6192 59.8313C21.6756 61.8837 20.7078 63.9312 19.7738 65.9981C19.1656 67.3663 19.5337 68.4147 20.8591 69.2396C22.117 70.0262 23.3893 70.8031 24.6616 71.58C24.6954 71.5992 24.7099 71.6521 24.7775 71.753C24.2215 72.7938 23.6367 73.8539 23.0615 74.9285C22.1219 76.644 22.4177 77.6781 24.1142 78.714L47.7581 93.1201C49.3774 94.1032 50.4598 93.8794 51.5009 92.3466C52.1917 91.32 52.8921 90.3077 53.6213 89.2136C54.9611 90.0288 56.2431 90.8202 57.5298 91.5874C57.9202 91.8272 58.3538 92.038 58.7919 92.0996C59.7163 92.2323 60.4229 91.8217 60.9749 91.1178C62.3667 89.3291 63.7441 87.5501 65.1359 85.7615C66.2254 84.3633 67.3293 82.9555 68.4332 81.5477C69.5077 82.1229 70.5102 82.7464 71.57 83.2061C75.4529 84.8869 80.1047 83.8179 82.7979 80.698C82.9084 80.5822 83.0381 80.4953 83.163 80.3699L93.958 62.6538C94.431 61.0838 94.519 59.5001 93.4812 58.1066C92.9308 57.3474 92.1641 56.6704 91.364 56.162C88.4867 54.3298 85.5421 52.5844 82.6168 50.8052L81.8023 50.3064C82.8586 49.1394 83.8477 48.0591 84.8512 46.9692C86.5701 45.1076 88.2843 43.2701 90.0032 41.4085C91.1364 40.1691 90.9213 38.6632 89.4369 37.7568C77.6584 30.5873 65.8942 23.4081 54.1012 16.2483C52.5494 15.3036 51.1258 15.7976 50.5183 17.4787C49.2458 21.0045 47.978 24.5063 46.7055 28.0322C46.6386 28.2441 46.5235 28.4465 46.3894 28.7452L45.6087 28.2656C42.6737 26.472 39.7242 24.6881 36.8036 22.8848C35.2421 21.9257 33.5905 21.5491 31.8931 22.2892C31.1671 22.6085 30.5667 23.1777 29.8891 23.6316L27.9948 26.7593C28.6885 27.0466 29.3534 27.3532 30.0136 27.7464ZM24.9973 66.6556C24.8431 66.5501 24.7027 66.1846 24.7698 66.0353C26.0535 63.212 27.3468 60.4032 28.6545 57.5848C28.6784 57.527 28.7505 57.4787 28.813 57.416L31.6371 59.1377C30.084 61.9951 28.5261 64.8767 26.9252 67.8498C26.1878 67.4038 25.5662 67.0683 24.9973 66.6556ZM48.6432 88.517L27.756 75.7941C30.3349 71.0381 32.9138 66.2821 35.4975 61.5019L57.7823 75.064C54.7456 79.5419 51.7136 83.9957 48.6432 88.517ZM61.7891 82.7607C60.8196 83.995 59.8405 85.2148 58.9144 86.4826C58.5592 86.9503 58.285 87.0087 57.803 86.6632C57.2872 86.2985 56.7331 86.0013 56.1065 85.6273C57.992 82.8605 59.8149 80.1564 61.6667 77.4331L64.568 79.2075C63.6177 80.408 62.7106 81.5795 61.7891 82.7607ZM84.9424 40.3079C80.597 45.0148 76.3045 49.6447 71.9783 54.318L47.438 39.3843C49.6099 33.3971 51.7627 27.4436 53.9393 21.4322L84.9424 40.3079Z" fill="#A4A4A4"/>
<path d="M22.2927 40.4184C20.9626 39.6176 19.6372 38.7927 18.3071 37.9918C18.0372 37.8384 17.9261 37.6413 17.911 37.3381C17.8217 36.1447 17.7324 34.9513 17.6144 33.7772C17.5847 33.4211 17.7047 33.2572 18.0413 33.1362C21.5424 31.8771 25.0579 30.6084 28.5589 29.3493C29.0302 29.1799 29.2085 29.2902 29.2722 29.7906C29.752 33.5003 30.2462 37.2003 30.726 40.91C30.7749 41.2324 30.6549 41.3963 30.3664 41.5269C29.2364 41.9915 28.092 42.4656 26.9716 42.9446C26.712 43.0558 26.5 42.9889 26.288 42.8594C24.953 42.0201 23.6228 41.2193 22.2927 40.4184ZM28.273 30.6687C28.249 30.664 28.2152 30.6448 28.2056 30.6304C26.1444 32.2617 24.0832 33.8929 21.9932 35.5435C23.6125 36.5266 25.1644 37.4714 26.7499 38.4353C27.2784 35.8255 27.7637 33.2448 28.273 30.6687ZM29.767 40.3202C29.7958 40.3009 29.8246 40.2815 29.8679 40.2526C29.5155 37.6062 29.168 34.9358 28.8156 32.2895C28.3198 34.4179 27.8961 36.5606 27.4869 38.6936C27.4679 38.7899 27.5019 38.9342 27.5693 38.9726C28.2923 39.4282 29.044 39.8645 29.767 40.3202ZM26.5795 30.9468C26.5698 30.9324 26.5505 30.9035 26.5409 30.8891C24.0209 31.8043 21.5009 32.7194 18.8895 33.6541C19.0872 33.7932 19.1933 33.8893 19.3282 33.966C19.8632 34.2969 20.4125 34.6181 20.9331 34.9587C21.1789 35.1074 21.3377 35.1263 21.5635 34.9333C22.5628 34.1177 23.5814 33.3309 24.6048 32.5201C25.2727 31.9892 25.9261 31.468 26.5795 30.9468ZM21.857 39.2691C21.6482 38.4273 21.4299 37.6336 21.2789 36.8157C21.1618 36.0796 20.8093 35.5847 20.1107 35.2589C19.5374 34.9955 19.0264 34.6067 18.3999 34.2327C18.4695 35.2721 18.5438 36.225 18.6422 37.1825C18.6472 37.2836 18.7871 37.3988 18.8979 37.4707C19.5437 37.8736 20.204 38.2668 20.8498 38.6697C21.1968 38.8759 21.5197 39.0773 21.857 39.2691ZM23.5294 40.3002C24.5463 40.914 25.5487 41.5375 26.5559 42.1369C26.6475 42.18 26.8255 42.1652 26.9217 42.1217C27.4939 41.8846 28.0661 41.6475 28.6383 41.4104C28.9124 41.2895 29.1961 41.183 29.5375 41.0378C28.6556 40.5007 27.8652 40.0067 27.07 39.5368C27.0025 39.4984 26.9062 39.4794 26.8293 39.4892C25.7373 39.7611 24.6598 40.0234 23.5294 40.3002ZM22.0338 36.4772C22.2911 37.5162 22.5341 38.5649 22.8011 39.6184C23.8402 39.361 24.8936 39.0939 25.9326 38.8366C24.6362 38.0549 23.3302 37.2589 22.0338 36.4772Z" fill="#A4A4A4"/>
<path d="M76.2149 41.7462L66.8199 43.9037L64.1037 34.3608L76.2149 41.7462Z" fill="#A4A4A4"/>
<path d="M65.3586 38.1976L58.3136 38.7184L55.6071 29.1899L64.1036 34.3596L65.3586 38.1976Z" fill="#A4A4A4"/>
<path d="M71.6004 48.6293C72.0291 47.9253 71.7928 46.999 71.0724 46.5603C70.3521 46.1216 69.4206 46.3366 68.9919 47.0405C68.5631 47.7445 68.7995 48.6708 69.5198 49.1095C70.2401 49.5482 71.1716 49.3332 71.6004 48.6293Z" fill="#A4A4A4"/>
</svg>
