<svg width="95" height="98" viewBox="0 0 95 98" fill="none" xmlns="http://www.w3.org/2000/svg">
<path d="M75.523 35.7329C75.3356 35.8585 75.1481 35.984 74.9607 36.1096C74.4273 36.4669 73.8891 36.8483 73.3846 37.2489C73.1491 37.4275 72.9856 37.4952 72.8508 37.4811C72.7064 37.4525 72.5569 37.3229 72.3831 37.0634L72.1079 36.6838L71.959 36.8044C71.4402 37.2772 70.7914 37.7118 70.1232 38.055L69.9549 38.1468L70.1094 38.3775C70.346 38.6994 70.4283 38.9158 70.3902 39.1084C70.3665 39.2914 70.2081 39.4602 69.8573 39.7161C57.6657 48.3002 45.0129 57.256 31.1395 67.0712C30.8319 67.2981 30.6299 67.3707 30.4614 67.3374C30.2929 67.3041 30.1338 67.16 29.9262 66.8813C23.8284 58.1833 18.2666 50.3167 12.9318 42.8203C12.6953 42.4983 12.6033 42.2675 12.627 42.0846C12.6506 41.9016 12.8091 41.7328 13.1551 41.501C20.9065 36.0791 28.7491 30.5751 36.4379 25.1533C38.7205 23.5407 41.0223 21.8945 43.252 20.2965C44.314 19.5433 45.352 18.7854 46.414 18.0323C46.6014 17.9067 46.8129 17.7859 47.0147 17.6507C47.0868 17.6024 47.183 17.5589 47.2551 17.5106C47.2888 17.5298 47.3129 17.5346 47.3466 17.5537C47.2943 17.8186 47.2322 18.069 47.1943 18.3242C47.0371 19.0561 46.8751 19.8121 46.7372 20.5728L46.704 20.8039C46.314 22.9032 45.924 25.0651 45.6111 27.2171C45.5352 27.7275 45.5604 28.2328 45.5856 28.7381C45.6054 29.0172 45.6109 29.306 45.597 29.5659L45.6019 29.6044C45.6118 29.7439 45.5886 30.1146 45.5165 30.1629C45.3435 30.2788 44.9971 30.3228 44.814 30.2366C43.6385 29.729 42.4581 29.1829 41.3018 28.6416L40.5117 28.2728C40.1118 28.0811 39.7554 27.9856 39.4618 27.9526C39.1537 27.9292 38.9036 27.9923 38.7017 28.1275C38.3077 28.4123 38.1453 28.9806 38.229 29.8227C38.4308 31.9015 38.6328 33.9802 38.825 36.0445C38.9825 37.6517 39.1353 39.283 39.2929 40.8901C39.3272 41.1596 39.3374 41.4243 39.3477 41.7515C39.3575 41.8285 39.3673 41.9055 39.3627 41.9921C39.3289 41.973 39.3049 41.9682 39.2711 41.949C39.0496 41.8677 38.8617 41.8056 38.6883 41.7337C37.7825 41.317 36.8912 40.8906 35.9855 40.4739C34.9207 39.9757 33.8656 39.4919 32.8105 39.0081C31.9722 38.6297 31.4816 38.7703 31.2077 38.9538C30.9338 39.1373 30.6219 39.576 30.7106 40.5191L31.1492 45.1963C31.5137 48.9833 31.8637 52.78 32.2282 56.567C32.3071 57.4331 32.5875 57.9764 33.0452 58.1919C33.5029 58.4075 34.0801 58.2715 34.7769 57.7839C43.1769 51.8647 51.5529 45.9409 59.9288 40.017C60.6256 39.5294 60.9518 39.0185 60.9026 38.5084C60.8533 37.9984 60.4384 37.5661 59.6724 37.202C59.1231 36.9433 58.5498 36.6799 58.0006 36.4212C56.5456 35.7457 55.0328 35.0464 53.5632 34.318C53.2549 34.1695 53.0133 33.7465 52.8344 33.3859C52.733 33.2032 52.6315 33.0206 52.53 32.8379C52.1919 32.2707 51.8488 31.665 51.8235 31.0972C51.8034 30.6929 52.0094 30.2834 52.2299 29.8642C52.412 29.5124 52.5989 29.1366 52.6654 28.737C53.1599 25.9829 53.6254 23.1855 54.0719 20.4845C54.2334 19.4782 54.3995 18.4479 54.561 17.4417C54.5943 17.2731 54.6132 17.1143 54.6657 16.912C54.6752 16.8638 54.6895 16.7916 54.7134 16.7338C54.7327 16.7627 54.7761 16.7962 54.7954 16.8251C54.9498 16.9932 55.0753 17.1181 55.1718 17.2622L59.7149 23.7016L59.8542 23.5665C60.3922 23.06 60.9495 22.6449 61.6802 22.239L61.8485 22.1471L61.7423 21.9885C59.7387 19.1533 57.7591 16.3228 55.7555 13.4876C55.5527 13.1848 55.4409 12.6749 55.5025 12.2368C55.6254 11.2354 55.7772 10.2148 55.9483 9.22292C56.0386 8.70293 56.1193 8.16849 56.1952 7.65815C56.5368 5.4242 55.2813 3.54993 53.2254 3.19347C51.2417 2.85129 49.4879 4.19312 49.0788 6.38872C48.9029 7.34207 48.7365 8.30985 48.5702 9.27762C48.3467 10.5343 48.1282 11.8294 47.8903 13.0958C47.8237 13.4328 47.6033 13.9146 47.3102 14.1318C45.3977 15.5173 43.437 16.8933 41.5581 18.2355C40.1645 19.2107 38.7806 20.2004 37.3966 21.1901C37.1803 21.335 37.0313 21.3931 36.9109 21.3693C36.7905 21.3455 36.6507 21.2303 36.5058 21.014C35.4774 19.5098 34.6084 18.2748 33.7588 17.1312C32.7643 15.7713 31.4932 15.5575 30.0996 16.5328C27.6151 18.2805 25.1019 20.0476 22.6415 21.8001C21.272 22.7801 21.0485 24.0368 22.0237 25.4304C22.608 26.2714 23.2066 27.1027 23.7908 27.9437L24.5537 29.0201C24.8481 29.4285 25.0123 29.6737 24.9885 29.794C24.9744 29.9288 24.7148 30.1027 24.3352 30.3778L10.3945 40.2172C9.02969 41.1732 8.94417 41.6691 9.89047 43.0195L16.9345 53.0053C17.8711 54.3412 18.8222 55.6675 19.7492 56.989C22.3563 60.6941 25.0744 64.5337 27.7586 68.2915C28.0048 68.6279 28.1017 68.8972 28.054 69.0753C28.0159 69.2679 27.8478 69.4223 27.5209 69.6204C27.0691 69.8813 26.6462 70.1854 26.233 70.504C26.0888 70.6005 25.9399 70.7212 25.7957 70.8178C24.7578 71.5757 24.6437 72.2161 25.3775 73.2492C26.0776 74.2632 26.7921 75.2676 27.5066 76.2719C28.4674 77.6126 29.0114 77.7077 30.3185 76.7903L44.043 67.0958C44.2449 66.9606 44.4708 66.8302 44.7111 66.6901C44.7688 66.6514 44.8505 66.6176 44.9082 66.5789L44.9517 66.6751C45.0679 66.9733 45.1695 67.2185 45.2567 67.4734C46.0217 69.5509 46.8108 71.6332 47.5758 73.7107C48.9556 77.4232 50.3499 81.1261 51.7297 84.8387C51.967 85.4735 52.2328 85.9638 52.5705 86.3433C53.608 87.5491 55.3412 87.8292 56.6774 87.0177C56.764 86.9598 56.836 86.9115 56.9225 86.8535C58.1864 85.9652 58.6355 84.4529 58.0979 82.9332C57.3715 80.9134 56.6065 78.8359 55.7353 76.5998C55.5272 76.0708 55.618 75.8011 56.0794 75.492C57.3914 74.6132 58.4534 73.86 59.424 73.1263C59.6739 72.9381 59.8518 72.8607 59.9962 72.8892C60.1551 72.9081 60.2998 73.0618 60.4977 73.3261C61.5987 74.9697 62.6656 76.469 63.7518 77.9346C64.3552 78.7418 65.1552 79.2502 66.0459 79.3638C66.9462 79.4918 67.8792 79.201 68.6719 78.5447C70.0748 77.3961 70.2826 75.586 69.1623 73.9135C68.5249 72.962 67.8394 72.0009 67.1828 71.0831C66.8593 70.6314 66.5455 70.1941 66.2221 69.7424C65.8889 69.2762 65.6958 68.9879 65.7147 68.829C65.748 68.6605 66.0267 68.4529 66.5169 68.1246C66.8244 67.8977 67.1272 67.6949 67.4444 67.4824C68.0932 67.0478 68.7468 66.5891 69.3569 66.0969C69.8902 65.677 70.2368 65.6955 70.7914 66.1804C72.5321 67.6878 74.2824 69.1471 75.9892 70.5102C77.1029 71.3934 78.3594 71.4917 79.6236 70.791C80.9311 70.0614 81.5731 68.7124 81.2238 67.4425C80.986 66.5575 80.4547 65.7019 79.8567 65.1834C77.0985 62.8119 74.2633 60.4502 71.5149 58.1556C70.6036 57.3875 69.6779 56.6291 68.7665 55.861C67.6093 54.8817 66.4616 53.9169 65.2079 52.856L64.7788 52.4959C64.8412 52.4332 64.9277 52.3753 64.9854 52.3367C65.192 52.1774 65.3554 52.0471 65.5332 51.9071C67.4986 50.507 69.4592 49.1311 71.4246 47.731L73.4477 46.2923C75.4708 44.8536 77.5036 43.4293 79.5123 42.0002C80.4589 41.3243 80.6259 40.6694 80.0754 39.8476C79.2256 38.5789 78.3179 37.2862 77.3766 36.0369C76.9468 35.364 76.2198 35.2453 75.523 35.7329ZM45.9645 34.7294C45.7074 33.8155 46.1674 32.8807 47.1145 32.3926C47.8789 32.0058 48.9815 32.1863 49.5748 32.7914C50.3562 33.5839 50.5173 34.6039 49.9895 35.3751C49.4379 36.2041 48.7803 36.9997 48.1562 37.7519C47.9067 38.0653 47.6474 38.3643 47.4122 38.668C47.3881 38.6632 47.34 38.6537 47.2919 38.6442C47.1659 38.2691 47.0159 37.8891 46.8899 37.514C46.5703 36.6003 46.2313 35.6577 45.9645 34.7294ZM39.6451 45.6879C39.7046 46.4626 39.7737 47.2518 39.8476 48.0169C39.9262 48.7579 39.9808 49.4942 40.0353 50.2304C40.0503 50.471 39.9788 50.7696 39.8778 50.8372C38.4747 51.8606 37.0619 52.8696 35.5385 53.9318L34.6831 54.5257C34.2793 50.3682 33.9001 46.4032 33.5012 42.2842C33.7999 42.4183 34.0745 42.5476 34.3491 42.677C34.7971 42.8781 35.2114 43.0601 35.621 43.2662C36.0112 43.4434 36.3774 43.6159 36.7532 43.8027C37.4759 44.1333 38.2179 44.4926 38.9646 44.8279C39.4318 44.9953 39.6104 45.2307 39.6451 45.6879ZM56.8796 38.8012L42.689 48.8288L40.9757 31.3664C41.1588 31.4527 41.3178 31.5341 41.4913 31.606C42.1658 31.9269 42.7391 32.1904 43.2932 32.4876C43.3463 32.5356 43.3805 32.8051 43.3472 32.9736C43.0706 34.1197 43.1743 35.3034 43.6824 36.5922C44.0503 37.5155 44.3893 38.458 44.733 39.3765C45.0186 40.146 45.3043 40.9154 45.6044 41.6752C45.8367 42.2715 46.2226 42.6605 46.6944 42.7413C47.1663 42.8221 47.6471 42.6045 48.0407 42.1319C48.7272 41.317 49.4136 40.5021 50.0904 39.6728C50.7673 38.8435 51.4584 38.0046 52.1593 37.18C52.2937 37.0064 52.611 36.8565 52.6833 36.8708C53.8009 37.3545 54.8994 37.8719 56.0557 38.4132L56.8796 38.8012ZM50.4837 25.9166L50.5273 26.0127C50.4605 26.2872 50.4178 26.5665 50.351 26.8409C50.2273 27.4669 50.0843 28.1266 49.9365 28.7478C49.8029 29.2967 49.4569 29.5285 48.9129 29.4335C48.3303 29.3433 48.0648 28.9781 48.1309 28.3908C48.1685 28.0105 48.235 27.6109 48.3064 27.2497C48.3634 26.8983 48.4252 26.5227 48.4725 26.1568C48.5009 25.9498 48.5391 25.8198 48.6256 25.7618C48.7121 25.7039 48.8517 25.6939 49.0828 25.7271C49.4102 25.7794 49.7375 25.769 50.0503 25.7683C50.161 25.7777 50.2765 25.763 50.3872 25.7724C50.4306 25.806 50.4692 25.8637 50.4837 25.9166ZM50.6286 12.9743C50.9421 11.0725 51.27 9.161 51.5931 7.27361C51.6598 6.93656 51.7745 6.60904 51.8654 6.33931C51.8941 6.25743 51.9084 6.18519 51.9323 6.12739C52.336 5.85697 52.7498 5.78869 53.0966 5.93232C53.3857 6.05201 53.5692 6.32592 53.6277 6.6627C53.6716 6.94656 53.6241 7.2499 53.5623 7.56287C52.9399 11.2798 52.332 14.9871 51.7097 18.7041L51.0588 22.5655C50.997 22.9411 50.9494 23.1818 50.8629 23.2397C50.7379 23.3026 50.4443 23.2695 49.9195 23.2033L49.7366 23.1796C49.3948 23.1371 49.1973 23.0605 49.1103 22.9307C49.0234 22.801 49.0037 22.5845 49.0749 22.1608C49.6025 19.113 50.1202 15.9883 50.6286 12.9743ZM24.5629 24.4815C24.4133 24.2893 24.3456 24.1258 24.3694 24.0054C24.3932 23.885 24.5083 23.7452 24.7246 23.6004C26.7382 22.2098 28.8719 20.7179 31.068 19.1633C31.2987 19.0088 31.4477 18.9507 31.5825 18.9649C31.7029 18.9887 31.8331 19.0895 31.9779 19.3057C32.6733 20.3438 33.4361 21.4202 34.3146 22.6071C34.4643 22.7993 34.5223 22.9483 34.4985 23.0687C34.4747 23.1891 34.3884 23.3096 34.1865 23.4448C33.4224 23.9567 32.6632 24.507 31.9231 25.0236C31.6156 25.2505 31.2984 25.463 30.9909 25.6898L30.866 25.8153C30.6209 25.9794 30.3999 26.1484 30.1548 26.3126C29.4003 26.8388 28.6314 27.3748 27.8818 27.9395C27.6464 28.1181 27.4685 28.1955 27.3384 28.1573C27.2036 28.1431 27.0782 28.0183 26.9334 27.802C26.185 26.7159 25.4222 25.6395 24.5629 24.4815ZM48.3449 64.5066C48.5095 64.9394 48.6692 65.3337 48.8145 65.7377L49.623 67.9114C51.5258 73.0282 53.4285 78.145 55.3312 83.2618C55.3554 83.3291 55.3893 83.4108 55.4231 83.4926C55.549 83.8051 55.6893 84.1706 55.5936 84.4019C55.5313 84.5271 55.4015 84.614 55.214 84.677C55.0264 84.74 54.8628 84.7452 54.7616 84.6876C54.5207 84.5775 54.4044 84.2168 54.293 83.8945C54.2591 83.8128 54.2397 83.7214 54.2155 83.6541C52.9905 80.3599 51.7656 77.0657 50.5407 73.7715C49.5869 71.1939 48.6331 68.6162 47.6696 66.0242C47.3647 65.2259 47.2727 64.9951 47.71 64.6813C47.8542 64.5847 48.0368 64.4832 48.2916 64.3335L48.3449 64.5066ZM58.0132 70.646C57.6432 70.9356 57.2348 71.23 56.8455 71.4908C56.7013 71.5874 56.5427 71.6936 56.4082 71.8046L56.2737 71.9156C56.1872 71.9735 56.1006 72.0315 56.0382 72.0942C55.7018 72.3404 55.3655 72.5866 55.0001 72.7895C54.9281 72.8378 54.7836 72.8092 54.6585 72.8095C54.6344 72.8048 54.62 72.8144 54.5959 72.8097C54.6007 72.7856 54.5958 72.7471 54.5909 72.7086C54.5859 72.6075 54.5807 72.4439 54.5999 72.4102C55.5849 71.6668 56.618 70.933 57.7474 70.1556C57.8244 70.1458 58.0315 70.2368 58.0702 70.2945C58.1088 70.3521 58.0612 70.5929 58.0132 70.646ZM56.1189 67.1944C56.1865 67.2953 56.1825 67.6323 56.1345 67.6853C55.409 68.2548 54.6545 68.7811 53.8423 69.346C53.6405 69.4812 53.4386 69.6164 53.232 69.7757L52.8883 68.8572C52.4235 67.602 51.9781 66.4383 51.5424 65.2889C51.3391 64.7359 51.1454 64.1972 50.942 63.6442C50.7338 63.0527 50.6895 62.6437 50.8237 62.345C50.9674 62.0607 51.2749 61.8338 51.8521 61.6352C51.9482 61.5917 52.2517 61.7017 52.353 61.8218C53.0047 62.7012 53.6419 63.5902 54.2648 64.4888C54.8732 65.3971 55.5057 66.3102 56.1189 67.1944ZM67.0194 75.5787C67.0113 76.2525 66.9009 76.4309 66.8289 76.4791C66.6991 76.5661 66.2995 76.4996 65.9189 76.3368C65.8033 76.2889 65.7018 76.1062 65.5956 75.9476C65.5473 75.8755 65.5037 75.7794 65.441 75.7169C64.2775 74.0735 63.114 72.43 61.9601 70.8009L58.8509 66.4087C57.5232 64.5202 56.1569 62.5739 54.781 60.6758C54.5735 60.3971 54.4527 60.1856 54.486 60.0171C54.5001 59.8823 54.6298 59.7328 54.8605 59.5783C55.3987 59.1969 55.5724 59.3939 55.92 59.9129C58.0685 62.9644 60.2073 66.0015 62.3702 69.0433L66.6574 75.1319C66.6961 75.1896 66.7347 75.2472 66.7877 75.2953C66.8167 75.3385 66.8698 75.3865 66.9084 75.4442C66.9759 75.4825 67.0145 75.5402 67.0194 75.5787ZM61.6692 63.226C60.8436 62.0872 60.0132 60.9098 59.2118 59.7757C58.7821 59.1654 58.3427 58.5407 57.913 57.9304C57.6958 57.6373 57.7388 57.4832 58.0559 57.2081C58.2817 57.0151 58.4594 56.8751 58.6036 56.7786C59.1274 56.4068 59.3106 56.5556 60.0821 57.2085C60.7041 57.7317 61.3502 58.2597 61.9722 58.783C62.8112 59.4742 63.6261 60.1607 64.4651 60.8519C64.6146 60.9815 64.7496 61.1208 64.9377 61.3081L65.0535 61.4185C64.8372 61.5634 64.6306 61.7227 64.4144 61.8675C63.6551 62.4179 62.9439 62.9152 62.2133 63.3836C62.1268 63.4416 61.7608 63.3317 61.6692 63.226ZM67.4026 63.7717C67.3596 63.9258 67.3166 64.0799 67.2397 64.1523C66.9515 64.408 66.62 64.6301 66.3028 64.8426C66.2163 64.9005 66.1442 64.9488 66.0576 65.0068L65.9135 65.1034C65.7693 65.1999 65.6492 65.3013 65.505 65.3979C65.1542 65.6537 64.789 65.9192 64.4237 66.1222C64.3804 66.1511 64.2119 66.1178 64.0915 66.094C64.0675 66.0893 64.0434 66.0845 64.0193 66.0797C64.0241 66.0557 64.0192 66.0172 64.0239 65.9931C64.0189 65.892 64.0378 65.7331 64.057 65.6994C65.0997 64.9174 66.0463 64.2416 66.9499 63.6572C67.0075 63.6186 67.1954 63.6807 67.3158 63.7045C67.3398 63.7093 67.3736 63.7285 67.3976 63.7332C67.4073 63.7477 67.4073 63.7476 67.4026 63.7717ZM77.3798 68.1585C72.2494 63.867 67.1093 59.561 61.9934 55.2599C61.8969 55.1783 61.8053 55.0726 61.6895 54.9621C61.6799 54.9477 61.6702 54.9333 61.6605 54.9189C62.4528 54.0749 62.5106 54.0988 63.3352 54.7997C68.0557 58.76 72.786 62.7347 77.521 66.6854L77.6608 66.8006C77.844 66.9494 78.0176 67.0838 78.1864 67.2422C78.6541 67.6599 78.7318 67.963 78.4437 68.2813C78.1653 68.614 77.8861 68.5713 77.3798 68.1585ZM77.0682 40.2537C77.0446 40.4367 76.8766 40.6536 76.5594 40.8661C75.1129 41.8559 73.6568 42.8939 72.2681 43.9077C71.307 44.5932 70.3604 45.2691 69.3993 45.9546C67.3233 47.4079 65.2473 48.8612 63.1809 50.3288C60.2784 52.3566 57.3855 54.3988 54.4782 56.4507L53.8102 56.919C49.8841 59.6951 45.9436 62.4808 42.0272 65.2713C38.1011 68.0474 34.1847 70.8379 30.2442 73.6236C29.9223 73.8601 29.4847 74.0488 29.3548 74.0732C28.9352 73.665 28.6019 73.1363 28.2878 72.5738C28.331 72.4823 28.4942 72.2894 28.6287 72.1784C29.1525 71.8067 29.686 71.4493 30.1953 71.0873C30.6567 70.7782 31.1084 70.4548 31.5553 70.1554C36.1205 66.9303 40.6858 63.7053 45.251 60.4802L51.9546 55.7391L51.9739 55.768L72.4309 41.3131C73.6227 40.473 74.5885 39.7634 75.4678 39.1117C75.7321 38.9138 75.9244 38.8268 76.0785 38.8698C76.223 38.8983 76.3581 39.0376 76.4789 39.2491C76.5514 39.3885 76.648 39.5327 76.7637 39.6431C76.9808 39.8737 77.0775 40.0804 77.0682 40.2537Z" fill="#A4A4A4"/>
<path d="M61.9983 24.5566C62.056 24.5179 62.1137 24.4793 62.1858 24.431C62.2387 24.4165 62.2772 24.4116 62.3301 24.397C64.0806 23.7675 65.8215 23.1235 67.572 22.494C67.8557 22.3875 68.0098 22.4305 68.2028 22.6563C68.888 23.4297 69.5395 24.2464 70.1093 25.0971C70.6598 25.9189 71.1526 26.7793 71.506 27.7122C71.7722 28.3903 71.9855 29.0829 72.0016 29.824C72.054 31.7731 71.4659 33.5456 70.3577 35.1652C70.0027 35.6954 69.9786 35.6906 69.3677 35.8701C69.3292 35.875 69.3004 35.8943 69.2619 35.8992C67.9151 36.2583 66.5435 36.2998 65.1808 36.0429C64.059 35.8336 63.0473 35.3834 62.1553 34.6441C61.4271 34.0249 60.7855 33.3477 60.2064 32.6077C59.4776 31.6756 58.8256 30.6712 58.2698 29.6232C58.149 29.4117 58.1775 29.2046 58.331 28.9973C59.3007 27.8257 60.2703 26.654 61.2399 25.4823C61.5136 25.1737 61.7488 24.8699 61.9983 24.5566ZM66.0244 30.0682C66.0534 30.1114 66.068 30.1643 66.0873 30.1932C67.1446 31.678 68.1971 33.187 69.2544 34.6719C69.2737 34.7007 69.3027 34.7439 69.322 34.7728C69.3364 34.7631 69.3508 34.7535 69.3508 34.7535C69.37 34.7197 69.4036 34.6763 69.4325 34.657C70.1427 33.7218 70.5977 32.686 70.8358 31.5448C70.9787 30.8851 71.0351 30.2208 70.9662 29.5568C70.8828 28.8398 70.6359 28.1906 70.3265 27.5416C70.2636 27.4166 70.2008 27.2916 70.1283 27.1521C70.0706 27.1908 70.013 27.2294 69.9697 27.2584C68.677 28.166 67.394 29.0881 66.1157 29.9861C66.111 30.0102 66.0677 30.0392 66.0244 30.0682C65.9955 30.0249 65.9521 29.9913 65.9134 29.9337C64.8658 28.4632 63.8326 26.9831 62.7753 25.4982C62.7463 25.4549 62.7174 25.4117 62.6884 25.3684C62.6596 25.3877 62.6451 25.3974 62.6451 25.3974C61.5747 26.6992 60.4899 28.0107 59.405 29.3222C59.3426 29.3849 59.3572 29.4379 59.3958 29.4955C59.966 30.5339 60.6227 31.5143 61.3659 32.4367C61.5155 32.6289 61.694 32.8018 61.8677 32.9987C61.8965 32.9794 61.9253 32.9601 61.9398 32.9505C63.2757 32.0138 64.602 31.0627 65.9379 30.1261C65.9668 30.1068 65.9956 30.0875 66.0244 30.0682Z" fill="#A4A4A4"/>
<path d="M69.993 35.6797C69.8632 35.7666 69.7189 35.8006 69.4256 35.8927L69.387 35.8976C69.3726 35.9073 69.3486 35.9025 69.3197 35.9218C69.3053 35.9315 69.2812 35.9267 69.2812 35.9267C67.9344 36.2859 66.5628 36.3274 65.1761 36.0657C63.982 35.8421 62.9991 35.3726 62.1408 34.6526C61.432 34.0621 60.8001 33.3993 60.1823 32.6017C59.4824 31.7129 58.8498 30.7372 58.2457 29.6171C58.1153 29.3912 58.1484 29.1601 58.3164 28.9432C59.2861 27.7715 60.2557 26.5998 61.2254 25.4281C61.403 25.2256 61.5566 25.0183 61.7245 24.8014L61.9597 24.4976L62.1471 24.3721C62.1616 24.3624 62.1856 24.3672 62.2 24.3575C62.2385 24.3526 62.2529 24.343 62.2914 24.3381C63.8544 23.7715 65.4174 23.205 66.9803 22.6384L67.5334 22.4351C67.8315 22.3189 68.0097 22.3666 68.2124 22.6069C68.9313 23.3994 69.578 24.2402 70.1285 25.0621C70.7466 25.9848 71.1912 26.8357 71.5348 27.6917C71.8688 28.5332 72.0146 29.1874 72.0257 29.8275C72.0732 31.7381 71.514 33.5539 70.377 35.1928C70.2139 35.4482 70.1228 35.5928 69.993 35.6797ZM62.0176 24.5841L61.7872 24.8638C61.6192 25.0808 61.4561 25.2736 61.2881 25.4906C60.3185 26.6622 59.3488 27.8339 58.3791 29.0056C58.2303 29.1888 58.2067 29.3718 58.3178 29.5688C58.9219 30.6889 59.569 31.6549 60.2544 32.5534C60.8625 33.3366 61.4945 33.9994 62.2033 34.5898C63.0375 35.3051 64.0251 35.7506 65.1951 35.9694C66.5577 36.2263 67.9294 36.1848 69.2618 35.8353C69.2762 35.8257 69.3003 35.8304 69.3147 35.8208C69.3291 35.8111 69.3532 35.8159 69.3676 35.8062L69.4061 35.8013C69.964 35.6365 69.9784 35.6268 70.3383 35.1351C71.461 33.5058 72.0153 31.7142 71.9631 29.8277C71.952 29.1876 71.7918 28.543 71.4675 27.7159C71.1336 26.8743 70.6745 26.0331 70.0708 25.1007C69.5204 24.2789 68.8832 23.4525 68.1644 22.6599C67.981 22.4485 67.8366 22.42 67.5673 22.5168L67.0142 22.7202C65.4512 23.2867 63.8883 23.8533 62.3253 24.4198C62.2965 24.4391 62.258 24.444 62.2195 24.4489C62.2051 24.4586 62.1954 24.4442 62.181 24.4538L62.0176 24.5841ZM69.4039 34.8002L69.3895 34.8099L69.375 34.8196L69.3462 34.8389L68.4579 33.575C67.6661 32.4553 66.8743 31.3356 66.0825 30.216C66.0632 30.1871 66.0439 30.1583 66.0342 30.1439C66.0198 30.1535 66.0054 30.1632 65.991 30.1729C65.0011 30.8777 63.9967 31.5922 62.9971 32.2827L61.8919 33.0648L61.8726 33.036C61.8195 32.988 61.7713 32.9159 61.7182 32.8679C61.6072 32.7333 61.4818 32.6085 61.3804 32.4884C60.6565 31.5948 59.9902 30.6 59.4007 29.5328C59.3571 29.4366 59.357 29.3741 59.4194 29.3113C60.2738 28.2795 61.1139 27.2573 61.9683 26.2254L62.6451 25.3961C62.6595 25.3865 62.6595 25.3865 62.6739 25.3768L62.7316 25.3382L62.8475 25.5112C63.8952 26.9817 64.9284 28.4618 65.9857 29.9467C66.005 29.9755 66.0243 30.0043 66.058 30.0235L66.0725 30.0138L66.0821 30.0283C66.111 30.0089 66.1398 29.9896 66.1686 29.9703L70.2244 27.1074L70.3163 27.2756C70.3598 27.3718 70.4081 27.4439 70.4516 27.54C70.8142 28.2997 71.013 28.9394 71.0769 29.5649C71.1456 30.1664 71.1038 30.821 70.9562 31.5673C70.718 32.7085 70.2439 33.778 69.5481 34.7036C69.4711 34.7134 69.4375 34.7568 69.4039 34.8002ZM66.087 30.0668C66.0967 30.0812 66.0967 30.0812 66.087 30.0668C66.1063 30.0956 66.1256 30.1244 66.1353 30.1389C66.9271 31.2585 67.7188 32.3782 68.5106 33.4979L69.3507 34.6897C69.3699 34.6559 69.3987 34.6366 69.4323 34.5932C70.1137 33.6773 70.5928 32.6462 70.8309 31.5051C70.9881 30.7731 71.0156 30.1281 70.9469 29.5267C70.8685 28.9108 70.6698 28.2711 70.3168 27.5259C70.2829 27.4441 70.225 27.3576 70.1814 27.2615L70.1476 27.1797L66.1783 29.9847C66.1543 30.0425 66.1255 30.0619 66.087 30.0668ZM61.8772 32.9493L62.9248 32.2059C63.9147 31.501 64.9287 30.8009 65.9186 30.096C65.933 30.0864 65.9475 30.0767 65.9619 30.067C65.9619 30.067 65.9619 30.067 65.9522 30.0526C65.9329 30.0238 65.8895 29.9902 65.8702 29.9614C64.8225 28.4909 63.7893 27.0108 62.732 25.5259L62.6741 25.4394L61.9973 26.2687C61.1429 27.3006 60.3028 28.3228 59.4484 29.3546C59.4148 29.398 59.41 29.4221 59.4342 29.4894C60.0141 30.5421 60.6805 31.537 61.4044 32.4306C61.5154 32.5651 61.6167 32.6852 61.7421 32.8101C61.7855 32.8436 61.8241 32.9013 61.8772 32.9493Z" fill="#A4A4A4"/>
</svg>
