<svg width="107" height="105" viewBox="0 0 107 105" fill="none" xmlns="http://www.w3.org/2000/svg">
<path d="M83.5652 65.9575L83.0458 66.1175C81.0691 66.7523 79.0971 67.363 77.13 68.0123C77.0627 68.0365 76.957 68.1282 76.8706 68.2487C76.5877 68.7306 76.2952 69.1981 76.0364 69.6848C75.6192 70.4028 75.1876 71.1306 74.7608 71.8342C74.4538 72.3114 74.1178 72.7453 73.7627 73.2129C73.6092 73.4202 73.4412 73.6371 73.2732 73.8541L73.0333 74.1819L70.1536 71.286C68.7838 72.1409 67.7033 73.2407 66.5556 74.4272C66.4163 74.5623 66.2914 74.6876 66.1762 74.8275L69.1814 77.8482L68.9316 78.099C68.8836 78.1521 68.85 78.1954 68.8068 78.2244C68.7155 78.3064 68.6483 78.3932 68.5618 78.4511C65.309 80.9851 61.7322 82.8171 57.9082 83.8747C57.4561 84.0105 57.1717 83.8041 56.9739 83.6024C55.7632 82.3874 54.5669 81.1627 53.3562 79.9477L51.3207 77.9067C51.2483 77.8298 51.1856 77.7674 51.1276 77.6809L50.785 77.2629L51.1166 77.0408C53.4812 75.5195 55.7685 73.8203 58.0984 71.8419L54.4228 68.1633C54.3508 68.2116 54.3028 68.2646 54.2307 68.3129C52.2706 69.9391 50.0648 71.4794 47.4933 73.0348C46.9261 73.3729 46.5551 73.1619 46.2994 72.8737C40.9499 67.4757 36.1071 62.6157 31.5006 58.015C31.0086 57.53 31.1666 57.1108 31.3583 56.7735C32.8449 54.3156 34.5243 51.9585 36.526 49.5524C36.934 49.0702 37.3517 48.6024 37.7886 48.1009C37.9854 47.8647 38.1919 47.6428 38.3887 47.4066L38.6335 47.1173L55.0675 63.6377C55.3316 63.3772 55.5958 63.1168 55.8599 62.8563C56.8349 61.9108 57.7377 61.0136 58.4766 59.9339C58.6396 59.6784 58.6396 59.6784 58.4226 59.4479C54.0283 55.0393 49.6243 50.6162 45.2301 46.2076L43.0401 43.9984C42.9581 43.9072 42.8857 43.8303 42.8037 43.739L42.4757 43.3739L42.7878 43.0604C42.8214 43.017 42.8646 42.9881 42.9079 42.9591C45.8861 40.2958 49.0093 37.974 52.225 36.0706C52.7778 35.7421 53.1107 36.0831 53.2988 36.2704L63.9011 46.9222L64.3937 45.5061C64.8768 44.1382 65.3502 42.7558 65.8477 41.3782C65.8669 41.3445 65.8573 41.3301 65.8573 41.3301C65.8573 41.3301 65.8042 41.2821 65.7849 41.2532L65.7318 41.2052L57.8356 33.2523L58.3357 33.0635C60.8123 32.1148 62.7893 31.605 64.7526 31.4178C66.8025 31.2352 69.1368 31.259 71.1473 32.8573C72.4249 31.6464 73.8377 30.6375 75.4771 29.8109C75.178 29.4891 74.8789 29.1672 74.5653 28.8551C65.7478 19.9946 49.58 15.0968 34.2717 22.4268C18.8384 29.8197 10.868 47.2312 15.3275 63.8356C19.8502 80.6903 35.7763 91.7443 53.21 90.113C69.5129 88.5707 80.2918 76.6302 83.5652 65.9575ZM49.6818 24.1978C53.3252 24.1802 56.8401 24.8126 60.4431 26.1378L61.4112 26.4919L60.4349 26.8117C60.0597 26.9377 59.6893 27.0396 59.3286 27.1559C58.5014 27.4176 57.7271 27.6647 56.948 27.9359C56.4382 28.1103 55.9477 28.3136 55.4572 28.5168C55.0629 28.6765 54.6686 28.8362 54.2743 28.9959C54.0194 29.0831 53.615 29.0407 53.4028 28.8486C52.5973 28.0514 51.7918 27.2542 50.9863 26.457L50.1615 25.631L49.5488 24.9971C49.4958 24.949 49.4668 24.9058 49.4426 24.8385L49.0418 24.2089L49.6818 24.1978ZM30.6373 30.9393C30.9304 30.722 31.2189 30.5289 31.4976 30.3213C32.127 29.8579 32.7133 29.4234 33.3573 29.0129C35.943 27.3227 38.7413 26.0748 41.637 25.284C41.9015 25.2112 42.2288 25.2008 42.5567 25.5033C43.9218 26.8865 45.3014 28.26 46.6665 29.6431L48.292 31.2904C48.3547 31.3528 48.3934 31.4104 48.4658 31.4873L48.7987 31.8908L48.4575 32.0986C45.1506 34.1465 42.0274 36.531 38.9149 39.3678L38.6699 39.5945L30.301 31.1855L30.6373 30.9393ZM20.8261 47.2863C20.5125 46.9741 20.4299 46.6326 20.5493 46.2185C21.5762 42.6065 23.2822 39.2289 25.5953 36.1965C25.7633 35.9795 25.9169 35.7722 26.0945 35.5697L26.1425 35.5166C26.1761 35.4732 26.2194 35.4442 26.2674 35.3912L26.594 35.068L34.8809 43.3858L34.6552 43.6414C31.7743 46.7617 29.394 49.8809 27.346 53.1534L27.1301 53.486L26.7203 53.1548C26.6335 53.0876 26.5708 53.0251 26.5081 52.9627L24.8054 51.2627C23.4692 49.9228 22.1525 48.6118 20.8261 47.2863ZM21.2498 64.9441C20.0199 61.5488 19.4151 57.9645 19.4216 54.3259L19.4249 53.6136L20.1095 54.1367C20.1866 54.1895 20.2397 54.2375 20.2927 54.2855L20.8474 54.833C21.8796 55.8751 22.9553 56.9509 23.9972 58.0074C24.1853 58.1947 24.321 58.5843 24.2157 58.8636C23.5985 60.5303 22.9524 62.2162 22.3303 63.8444L21.5742 65.8337L21.2498 64.9441ZM41.248 76.0902C40.9931 76.1774 40.7382 76.2646 40.4833 76.3518C39.9447 76.5455 39.4205 76.7296 38.8914 76.8751C36.246 77.6654 34.1962 77.9106 32.208 77.7177C30.4798 77.5386 29.208 77.0119 28.2481 76.0466C28.1854 75.9842 28.1228 75.9217 28.0601 75.8593C27.3846 75.1003 26.9398 74.1869 26.7015 73.0515C26.3124 71.2235 26.4092 69.2788 26.996 66.9433C27.2155 66.0861 27.4976 65.2288 27.7653 64.3811C27.8849 64.0295 27.99 63.6875 28.1095 63.3359C28.143 63.23 28.1814 63.1625 28.2245 63.0709C28.2437 63.0372 28.2484 63.0132 28.2676 62.9794L28.4928 62.5361L41.7866 75.8965L41.248 76.0902ZM49.9498 84.9029C47.2936 85.1157 41.8336 84.1362 39.1118 82.9726L38.3168 82.6278L39.2498 82.2745C39.3315 82.2406 39.4133 82.2067 39.4806 82.1825L40.3943 81.8628C42.0199 81.2961 43.6357 80.715 45.2468 80.158C45.2997 80.1435 45.8096 79.9691 46.0797 80.2477C47.1794 81.3282 48.231 82.3991 49.3693 83.5373L50.6862 84.8483L49.9498 84.9029Z" fill="#A4A4A4"/>
<path d="M92.401 52.3977C94.7526 49.2978 95.3935 45.2342 94.1099 41.5407C92.8264 37.8472 89.8025 35.0479 86.0318 34.0647C81.1053 32.7905 76.0368 34.7653 73.3556 38.9632C71.8784 41.3104 70.9458 44.0029 70.1376 46.3823C69.8077 47.3552 69.473 48.3522 69.1527 49.3395C68.3924 51.6033 67.6178 53.9393 66.7805 56.2128C65.6802 59.2474 64.2756 61.7965 62.5094 64.024C62.207 64.4145 61.8709 64.7858 61.5589 65.1619C61.4773 65.2584 61.4004 65.3307 61.3188 65.4272L62.9347 67.06C64.3275 65.7094 65.971 64.5458 68.1296 63.4341C71.5044 61.6748 75.2126 60.5067 78.4783 59.4888L79.3729 59.2029C81.9846 58.3934 84.6636 57.5597 87.1734 56.3798C89.4908 55.287 91.1532 54.0272 92.401 52.3977ZM78.4431 49.9881L78.4334 49.9737C77.213 48.7443 76.5357 47.1094 76.5318 45.3575C76.528 43.6056 77.2174 41.9532 78.4756 40.7135C79.7339 39.4739 81.3689 38.7964 83.1208 38.7926C84.8582 38.7984 86.5009 39.4734 87.7309 40.7173L87.7406 40.7317C90.273 43.2962 90.2677 47.4354 87.7272 49.9725C85.1579 52.5291 81.0043 52.5334 78.4431 49.9881Z" fill="#A4A4A4"/>
</svg>
