<svg width="58" height="58" viewBox="0 0 58 58" fill="none" xmlns="http://www.w3.org/2000/svg">
<path fill-rule="evenodd" clip-rule="evenodd" d="M29 57C44.464 57 57 44.464 57 29C57 13.536 44.464 1 29 1C13.536 1 1 13.536 1 29C1 44.464 13.536 57 29 57ZM29 58C45.0163 58 58 45.0163 58 29C58 12.9837 45.0163 0 29 0C12.9837 0 0 12.9837 0 29C0 45.0163 12.9837 58 29 58Z" fill="white"/>
<path fill-rule="evenodd" clip-rule="evenodd" d="M25.3661 19.6161C25.8543 19.128 26.6457 19.128 27.1339 19.6161L34.6339 27.1161C35.122 27.6043 35.122 28.3957 34.6339 28.8839L27.1339 36.3839C26.6457 36.872 25.8543 36.872 25.3661 36.3839C24.878 35.8957 24.878 35.1043 25.3661 34.6161L31.9822 28L25.3661 21.3839C24.878 20.8957 24.878 20.1043 25.3661 19.6161Z" fill="white"/>
</svg>
