<svg width="62" height="62" viewBox="0 0 62 62" fill="none" xmlns="http://www.w3.org/2000/svg">
<path fill-rule="evenodd" clip-rule="evenodd" d="M30.9995 18.3984C31.8695 18.3984 32.5747 19.1037 32.5747 19.9737V42.0264C32.5747 42.8964 31.8695 43.6018 30.9995 43.6018C30.1296 43.6018 29.4243 42.8964 29.4243 42.0264V19.9737C29.4243 19.1037 30.1296 18.3984 30.9995 18.3984Z" fill="black"/>
<path fill-rule="evenodd" clip-rule="evenodd" d="M18.3989 30.9999C18.3989 30.1299 19.1041 29.4247 19.9741 29.4247H42.027C42.897 29.4247 43.6021 30.1299 43.6021 30.9999C43.6021 31.8698 42.897 32.5751 42.027 32.5751H19.9741C19.1041 32.5751 18.3989 31.8698 18.3989 30.9999Z" fill="black"/>
<circle cx="31" cy="31" r="29.5" stroke="black" stroke-width="3"/>
</svg>
