<svg width="132" height="132" viewBox="0 0 132 132" fill="none" xmlns="http://www.w3.org/2000/svg">
<g filter="url(#filter0_d)">
<rect x="35" y="35" width="62" height="62" rx="31" fill="#C50677"/>
<rect x="35" y="35" width="62" height="62" rx="31" fill="url(#paint0_linear)"/>
</g>
<path fill-rule="evenodd" clip-rule="evenodd" d="M67.8838 55.3617C67.8838 54.5559 67.2305 53.9026 66.4247 53.9026C65.6188 53.9026 64.9656 54.5559 64.9656 55.3617V64.1163H56.2107C55.4049 64.1163 54.7516 64.7695 54.7516 65.5754C54.7516 66.3812 55.4049 67.0345 56.2107 67.0345H64.9656V75.7893C64.9656 76.5952 65.6188 77.2484 66.4247 77.2484C67.2305 77.2484 67.8838 76.5952 67.8838 75.7893V67.0345H76.6383C77.4442 67.0345 78.0974 66.3812 78.0974 65.5754C78.0974 64.7695 77.4442 64.1163 76.6383 64.1163H67.8838V55.3617Z" fill="white"/>
<defs>
<filter id="filter0_d" x="0" y="0" width="132" height="132" filterUnits="userSpaceOnUse" color-interpolation-filters="sRGB">
<feFlood flood-opacity="0" result="BackgroundImageFix"/>
<feColorMatrix in="SourceAlpha" type="matrix" values="0 0 0 0 0 0 0 0 0 0 0 0 0 0 0 0 0 0 127 0"/>
<feOffset/>
<feGaussianBlur stdDeviation="17.5"/>
<feColorMatrix type="matrix" values="0 0 0 0 0 0 0 0 0 0 0 0 0 0 0 0 0 0 0.18 0"/>
<feBlend mode="normal" in2="BackgroundImageFix" result="effect1_dropShadow"/>
<feBlend mode="normal" in="SourceGraphic" in2="effect1_dropShadow" result="shape"/>
</filter>
<linearGradient id="paint0_linear" x1="93.5168" y1="97.5933" x2="26.3374" y2="83.5453" gradientUnits="userSpaceOnUse">
<stop stop-color="#038AC7"/>
<stop offset="0.648193" stop-color="#C50677"/>
<stop offset="1" stop-color="white" stop-opacity="0"/>
</linearGradient>
</defs>
</svg>
