<svg width="44" height="83" viewBox="0 0 44 83" fill="none" xmlns="http://www.w3.org/2000/svg">
<path d="M5.47623 82.144C4.81623 82.144 4.19823 82.09 3.62223 81.982C3.04623 81.862 2.51223 81.682 2.02023 81.442C1.52823 81.19 1.08423 80.884 0.688232 80.524L1.24623 79.39C1.89423 79.93 2.54223 80.314 3.19023 80.542C3.85023 80.77 4.61823 80.884 5.49423 80.884C6.51423 80.884 7.30623 80.686 7.87023 80.29C8.43423 79.882 8.71623 79.312 8.71623 78.58C8.71623 78.136 8.57223 77.782 8.28423 77.518C8.00823 77.242 7.62423 77.026 7.13223 76.87C6.65223 76.702 6.10623 76.546 5.49423 76.402C4.88223 76.27 4.30023 76.12 3.74823 75.952C3.19623 75.772 2.70423 75.55 2.27223 75.286C1.85223 75.022 1.52223 74.686 1.28223 74.278C1.04223 73.87 0.922232 73.36 0.922232 72.748C0.922232 72.016 1.11423 71.374 1.49823 70.822C1.88223 70.258 2.42223 69.82 3.11823 69.508C3.81423 69.196 4.63623 69.04 5.58423 69.04C6.17223 69.04 6.73623 69.106 7.27623 69.238C7.81623 69.358 8.31423 69.538 8.77023 69.778C9.23823 70.018 9.65223 70.312 10.0122 70.66L9.43623 71.794C8.84823 71.278 8.24223 70.9 7.61823 70.66C6.99423 70.42 6.31623 70.3 5.58423 70.3C4.58823 70.3 3.80823 70.51 3.24423 70.93C2.68023 71.35 2.39823 71.938 2.39823 72.694C2.39823 73.162 2.52423 73.54 2.77623 73.828C3.02823 74.116 3.38223 74.35 3.83823 74.53C4.29423 74.698 4.81623 74.854 5.40423 74.998C6.02823 75.142 6.62823 75.298 7.20423 75.466C7.78023 75.634 8.29023 75.844 8.73423 76.096C9.19023 76.336 9.55023 76.654 9.81423 77.05C10.0782 77.434 10.2102 77.926 10.2102 78.526C10.2102 79.258 10.0182 79.894 9.63423 80.434C9.25023 80.974 8.70423 81.394 7.99623 81.694C7.28823 81.994 6.44823 82.144 5.47623 82.144Z" fill="white"/>
<path d="M16.2411 82.126C15.3531 82.126 14.5851 81.934 13.9371 81.55C13.2891 81.166 12.7851 80.626 12.4251 79.93C12.0771 79.234 11.9031 78.412 11.9031 77.464C11.9031 76.528 12.0831 75.706 12.4431 74.998C12.8031 74.278 13.3131 73.72 13.9731 73.324C14.6331 72.928 15.4131 72.73 16.3131 72.73C16.9251 72.73 17.5131 72.838 18.0771 73.054C18.6531 73.258 19.1271 73.546 19.4991 73.918L19.0131 74.998C18.5691 74.65 18.1311 74.392 17.6991 74.224C17.2791 74.044 16.8411 73.954 16.3851 73.954C15.4731 73.954 14.7471 74.26 14.2071 74.872C13.6791 75.484 13.4151 76.348 13.4151 77.464C13.4151 78.568 13.6791 79.42 14.2071 80.02C14.7351 80.62 15.4611 80.92 16.3851 80.92C16.8291 80.92 17.2671 80.836 17.6991 80.668C18.1311 80.488 18.5691 80.224 19.0131 79.876L19.4991 80.956C19.1151 81.316 18.6291 81.604 18.0411 81.82C17.4651 82.024 16.8651 82.126 16.2411 82.126Z" fill="white"/>
<path d="M21.3552 82V75.484C21.3552 75.064 21.3432 74.644 21.3192 74.224C21.3072 73.792 21.2712 73.366 21.2112 72.946H22.5972L22.7952 75.178L22.5972 75.124C22.7652 74.332 23.1252 73.738 23.6772 73.342C24.2412 72.934 24.8712 72.73 25.5672 72.73C25.7232 72.73 25.8672 72.742 25.9992 72.766C26.1432 72.778 26.2752 72.802 26.3952 72.838L26.3592 74.17C26.0832 74.074 25.7652 74.026 25.4052 74.026C24.7812 74.026 24.2772 74.164 23.8932 74.44C23.5212 74.716 23.2452 75.07 23.0652 75.502C22.8972 75.922 22.8132 76.366 22.8132 76.834V82H21.3552Z" fill="white"/>
<path d="M31.4449 82.126C30.5809 82.126 29.8249 81.934 29.1769 81.55C28.5409 81.166 28.0429 80.626 27.6829 79.93C27.3349 79.222 27.1609 78.388 27.1609 77.428C27.1609 76.48 27.3349 75.652 27.6829 74.944C28.0429 74.236 28.5409 73.69 29.1769 73.306C29.8249 72.922 30.5809 72.73 31.4449 72.73C32.3089 72.73 33.0589 72.922 33.6949 73.306C34.3429 73.69 34.8409 74.236 35.1889 74.944C35.5489 75.652 35.7289 76.48 35.7289 77.428C35.7289 78.388 35.5489 79.222 35.1889 79.93C34.8409 80.626 34.3429 81.166 33.6949 81.55C33.0589 81.934 32.3089 82.126 31.4449 82.126ZM31.4449 80.92C32.3329 80.92 33.0169 80.626 33.4969 80.038C33.9889 79.438 34.2349 78.568 34.2349 77.428C34.2349 76.312 33.9889 75.454 33.4969 74.854C33.0049 74.254 32.3209 73.954 31.4449 73.954C30.5689 73.954 29.8789 74.254 29.3749 74.854C28.8829 75.454 28.6369 76.312 28.6369 77.428C28.6369 78.568 28.8769 79.438 29.3569 80.038C29.8489 80.626 30.5449 80.92 31.4449 80.92Z" fill="white"/>
<path d="M38.0017 82V68.752H39.4597V82H38.0017Z" fill="white"/>
<path d="M42.2907 82V68.752H43.7487V82H42.2907Z" fill="white"/>
<path d="M20.9564 0C11.8736 0 4.48438 7.38922 4.48438 16.472V39.528C4.48438 48.6108 11.8736 56 20.9564 56C30.0392 56 37.4285 48.6108 37.4285 39.528V16.472C37.4285 7.38922 30.0392 0 20.9564 0ZM34.0686 39.528C34.0686 46.7578 28.1863 52.6401 20.9564 52.6401C13.7266 52.6401 7.84424 46.7578 7.84424 39.528V16.472C7.84424 9.24219 13.7266 3.35986 20.9564 3.35986C28.1863 3.35986 34.0686 9.24219 34.0686 16.472V39.528Z" fill="white"/>
<path d="M20.9573 11.1401C20.0293 11.1401 19.2773 11.8921 19.2773 12.8201V20.5524C19.2773 21.4799 20.0293 22.2323 20.9573 22.2323C21.8848 22.2323 22.6372 21.4799 22.6372 20.5524V12.8201C22.6372 11.8921 21.8853 11.1401 20.9573 11.1401Z" fill="white"/>
</svg>
